<svg width="121" height="120" viewBox="0 0 121 120" fill="none" xmlns="http://www.w3.org/2000/svg">
<path d="M16.5467 102C6.00471 102 -2.54229 73.083 0.694709 63C4.00671 52.686 28.4027 36 39.0047 36C43.0997 36 48.0047 42 48.0047 42C24.3587 51.21 30.0047 102 16.5467 102Z" fill="#894415"/>
<path d="M103.46 102C114.002 102 122.549 73.083 119.309 63C115.997 52.686 91.601 36 80.999 36C76.904 36 71.999 42 71.999 42C95.648 51.21 90.002 102 103.46 102Z" fill="#894415"/>
<path d="M105.005 15V9C105.005 4.029 100.976 0 96.0049 0H24.0049C19.0339 0 15.0049 4.029 15.0049 9V12V24C15.0049 25.656 16.3489 27 18.0049 27C19.6609 27 21.0049 25.656 21.0049 24V15C21.0049 13.344 22.3489 12 24.0049 12C25.6609 12 27.0049 13.344 27.0049 15V24C27.0049 25.656 28.3489 27 30.0049 27C31.6609 27 33.0049 25.656 33.0049 24V15C33.0049 13.344 34.3489 12 36.0049 12C37.6609 12 39.0049 13.344 39.0049 15V24C39.0049 25.656 40.3489 27 42.0049 27C43.6609 27 45.0049 25.656 45.0049 24V15C45.0049 13.344 46.3489 12 48.0049 12C49.6609 12 51.0049 13.344 51.0049 15V24C51.0049 25.656 52.3489 27 54.0049 27C55.6609 27 57.0049 25.656 57.0049 24V15C57.0049 13.344 58.3489 12 60.0049 12C61.6609 12 63.0049 13.344 63.0049 15V24C63.0049 25.656 64.3489 27 66.0049 27C67.6609 27 69.0049 25.656 69.0049 24V15C69.0049 13.344 70.3489 12 72.0049 12C73.6609 12 75.0049 13.344 75.0049 15V24C75.0049 25.656 76.3489 27 78.0049 27C79.6609 27 81.0049 25.656 81.0049 24V15C81.0049 13.344 82.3489 12 84.0049 12C85.6609 12 87.0049 13.344 87.0049 15V24C87.0049 25.656 88.3489 27 90.0049 27C91.6609 27 93.0049 25.656 93.0049 24V15C93.0049 13.344 94.3489 12 96.0049 12C97.6609 12 99.0049 13.344 99.0049 15V24C99.0049 25.656 100.349 27 102.005 27C103.661 27 105.005 25.656 105.005 24V15Z" fill="#353535"/>
<path d="M93.0049 87C93.0049 99.501 79.6399 114 60.0049 114C40.3699 114 27.0049 99.501 27.0049 87C27.0049 64.563 39.0049 48 39.0049 48C39.0049 48 45.0049 39 60.0049 39C75.0049 39 81.0049 48 81.0049 48C81.0049 48 93.0049 63 93.0049 87Z" fill="#CC6C25"/>
<path d="M60.7549 120H59.2549C53.0419 120 48.0049 114.963 48.0049 108.75C48.0049 106.68 49.6849 105 51.7549 105H68.2549C70.3249 105 72.0049 106.68 72.0049 108.75C72.0049 114.963 66.9679 120 60.7549 120Z" fill="#CC6C25"/>
<path d="M66.0049 78C63.0049 68.583 63.0049 39 63.0049 39H57.0049C57.0049 39 57.0049 68.583 54.0049 78C50.2489 89.793 39.0049 94.926 39.0049 102C39.0049 108 44.0059 114 51.0049 114C57.2209 114 60.0049 108 60.0049 108C60.0049 108 62.5789 114 69.0049 114C76.0039 114 81.0049 108 81.0049 102C81.0049 96 69.7609 89.793 66.0049 78Z" fill="#CFD8DC"/>
<path d="M69.0049 93C69.0049 97.971 60.0049 102 60.0049 102C60.0049 102 51.0049 97.971 51.0049 93C51.0049 90 55.0339 87 60.0049 87C64.9759 87 69.0049 90 69.0049 93Z" fill="#5D4037"/>
<path d="M42.0049 81C45.3186 81 48.0049 78.3137 48.0049 75C48.0049 71.6863 45.3186 69 42.0049 69C38.6912 69 36.0049 71.6863 36.0049 75C36.0049 78.3137 38.6912 81 42.0049 81Z" fill="#3E2723"/>
<path d="M78.0049 81C81.3186 81 84.0049 78.3137 84.0049 75C84.0049 71.6863 81.3186 69 78.0049 69C74.6912 69 72.0049 71.6863 72.0049 75C72.0049 78.3137 74.6912 81 78.0049 81Z" fill="#3E2723"/>
</svg>
