<svg width="40" height="40" viewBox="0 0 40 40" fill="none" xmlns="http://www.w3.org/2000/svg">
<path d="M20.0555 3.73547C12.6277 3.73547 6.59123 8.54856 6.59123 14.471V19.6419C6.59123 20.7333 6.00778 22.3973 5.31212 23.3277L2.73148 26.7452C1.13822 28.8565 2.23779 31.2004 5.15504 31.9877C14.8268 34.5642 25.2617 34.5642 34.9335 31.9877C37.6488 31.272 38.8381 28.7134 37.357 26.7452L34.7764 23.3277C34.1032 22.3973 33.5197 20.7333 33.5197 19.6419V14.471C33.5197 8.56645 27.4608 3.73547 20.0555 3.73547Z" stroke="#E5383B" stroke-width="3.75" stroke-miterlimit="10" stroke-linecap="round"/>
<path d="M24.2067 4.25445C23.5111 4.09342 22.793 3.96817 22.0525 3.8966C19.8982 3.68189 17.8337 3.80714 15.9038 4.25445C16.5546 2.93041 18.1703 2 20.0553 2C21.9403 2 23.556 2.93041 24.2067 4.25445Z" stroke="#E5383B" stroke-width="3.75" stroke-miterlimit="10" stroke-linecap="round" stroke-linejoin="round"/>
<path d="M26.7874 32.6322C26.7874 35.5845 23.758 38 20.0553 38C18.2152 38 16.5097 37.3916 15.298 36.4254C14.0862 35.4592 13.3232 34.0994 13.3232 32.6322" stroke="#E5383B" stroke-width="3.75" stroke-miterlimit="10"/>
</svg>
