<svg width="50" height="50" viewBox="0 0 50 50" fill="none" xmlns="http://www.w3.org/2000/svg">
<path d="M49.9129 24.9564C49.9129 38.7395 38.7395 49.9129 24.9564 49.9129C11.1734 49.9129 0 38.7395 0 24.9564C0 11.1734 11.1734 0 24.9564 0C38.7395 0 49.9129 11.1734 49.9129 24.9564Z" fill="white"/>
<path d="M49.9132 24.9565C49.9132 38.7381 38.7369 49.9146 24.9551 49.9146C18.0852 49.9146 11.8623 47.1349 7.34863 42.646L42.3878 7.10083C47.0341 11.6311 49.9132 17.9537 49.9132 24.9565Z" fill="#E5383B"/>
<path d="M24.9565 24.9563H44.7931C44.7931 19.4873 42.5685 14.5281 38.9764 10.936L24.9565 24.9563Z" fill="#E5E8EF"/>
<path d="M38.9764 10.9361C35.3846 7.34447 30.4256 5.11987 24.9565 5.11987V24.9564L38.9764 10.9361Z" fill="#E5383B"/>
<path d="M24.9564 24.9564V5.11987C19.4875 5.11987 14.5284 7.34447 10.9365 10.9361L24.9564 24.9564Z" fill="#E5E8EF"/>
<path d="M44.7931 24.9565H24.9565L38.9766 38.9764C42.5685 35.3848 44.7931 30.4256 44.7931 24.9565Z" fill="#E5383B"/>
<path d="M24.9565 44.7931C30.4256 44.7931 35.3848 42.5685 38.9766 38.9764L24.9565 24.9565V44.7931Z" fill="#E5E8EF"/>
<path d="M24.9567 24.9563L10.9368 10.936C7.34472 14.5281 5.12012 19.4873 5.12012 24.9563H24.9567Z" fill="#E5383B"/>
<path d="M5.12012 24.9565C5.12012 30.4256 7.34472 35.3848 10.9366 38.9764L24.9567 24.9565H5.12012Z" fill="#E5E8EF"/>
<path d="M24.9566 24.9565L10.9365 38.9764C14.5284 42.5685 19.4875 44.7931 24.9566 44.7931V24.9565Z" fill="#E5383B"/>
<path d="M24.9567 33.6539C29.7602 33.6539 33.6542 29.76 33.6542 24.9565C33.6542 20.153 29.7602 16.259 24.9567 16.259C20.1533 16.259 16.2593 20.153 16.2593 24.9565C16.2593 29.76 20.1533 33.6539 24.9567 33.6539Z" fill="white"/>
<path d="M29.2434 30.1154C29.0205 30.1154 28.7976 30.0304 28.6274 29.8602L20.0536 21.2862C19.7133 20.946 19.7133 20.3942 20.0536 20.0541C20.394 19.7137 20.9453 19.7137 21.2857 20.0541L29.8595 28.6281C30.1998 28.9683 30.1998 29.52 29.8595 29.8602C29.6893 30.0304 29.4664 30.1154 29.2434 30.1154Z" fill="#5A5A5A"/>
<path d="M20.6692 30.1154C20.4463 30.1154 20.2229 30.0303 20.0527 29.8599C19.7128 29.5196 19.7128 28.968 20.0532 28.6279L28.6317 20.0553C28.972 19.7154 29.5238 19.715 29.8641 20.0558C30.2041 20.3961 30.2041 20.9477 29.8637 21.2878L21.2852 29.8604C21.1151 30.0303 20.8921 30.1154 20.6692 30.1154Z" fill="#5A5A5A"/>
<path d="M24.9566 27.6861C26.4619 27.6861 27.6822 26.4658 27.6822 24.9605C27.6822 23.4552 26.4619 22.2349 24.9566 22.2349C23.4513 22.2349 22.231 23.4552 22.231 24.9605C22.231 26.4658 23.4513 27.6861 24.9566 27.6861Z" fill="#3C3C3C"/>
</svg>
