<svg width="75" height="75" viewBox="0 0 75 75" fill="none" xmlns="http://www.w3.org/2000/svg">
<path d="M37.168 37.1682H74.3363C74.3363 26.9206 70.168 17.6285 63.4374 10.8979L37.168 37.1682Z" fill="#E5E8EF"/>
<path d="M63.4374 10.8981C56.7072 4.1683 47.4155 0 37.168 0V37.1683L63.4374 10.8981Z" fill="#E5383B"/>
<path d="M37.1679 37.1683V0C26.9207 0 17.6286 4.1683 10.8984 10.8981L37.1679 37.1683Z" fill="#E5E8EF"/>
<path d="M74.3363 37.1685H37.168L63.4378 63.4379C70.168 56.7081 74.3363 47.416 74.3363 37.1685Z" fill="#E5383B"/>
<path d="M37.168 74.3368C47.4155 74.3368 56.7076 70.1685 63.4378 63.4379L37.168 37.1685V74.3368Z" fill="#E5E8EF"/>
<path d="M37.1683 37.1682L10.8989 10.8979C4.1683 17.6285 0 26.9206 0 37.1682H37.1683Z" fill="#E5383B"/>
<path d="M0 37.1685C0 47.416 4.1683 56.7081 10.8985 63.4379L37.1683 37.1685H0Z" fill="#E5E8EF"/>
<path d="M37.1683 37.1685L10.8984 63.4379C17.6286 70.1685 26.9207 74.3368 37.1683 74.3368V37.1685Z" fill="#E5383B"/>
</svg>
