<svg width="121" height="114" viewBox="0 0 121 114" fill="none" xmlns="http://www.w3.org/2000/svg">
<path d="M15.9002 0.590105C15.257 0.481305 14.5712 0.622705 13.9952 1.04511C12.8432 1.86431 12.586 3.45311 13.4052 4.60511C26.3076 22.6787 54.1112 33.6341 76.2552 33.8901H76.2802L79.5802 29.9001C59.1002 29.9001 29.5104 18.3519 17.5552 1.63511C17.1456 1.05911 16.5434 0.698905 15.9002 0.590105ZM76.2802 33.8901L69.9052 41.5451C35.8828 43.3115 32.3004 43.8503 29.9452 44.0551C26.95 41.8279 22.3938 36.9619 20.3202 34.3251C17.5554 30.8179 15.6062 27.3621 15.3502 26.8501C13.7374 23.7269 9.07897 22.1685 5.93017 23.7301C2.78137 25.3429 1.24677 29.9733 2.88517 33.2501C4.21637 35.8357 8.89937 44.4649 15.1202 50.6601C10.4098 58.2889 10.3602 65.9167 10.3602 73.3151L0.400171 102.6C0.297771 102.933 0.326571 103.293 0.480171 103.6C0.633771 103.907 0.887371 104.138 1.22017 104.24L13.4052 108.21C16.7588 109.26 20.4462 107.362 21.4702 104.085C21.9566 102.472 21.8044 100.656 20.9852 99.1201C20.1916 97.6353 18.8606 96.5065 17.3502 96.0201L16.4002 95.7151L21.6752 86.3451C27.9472 86.2171 31.8134 85.0407 34.4502 79.8951C34.5526 79.9207 34.6528 79.9201 34.7552 79.9201L66.6802 77.4351V111.92C66.6802 112.151 66.7578 112.356 66.8602 112.535C66.8858 112.586 66.9096 112.609 66.9352 112.66C67.0376 112.814 67.1916 112.918 67.3452 113.02C67.3708 113.02 67.3696 113.045 67.3952 113.07H67.4202C67.5994 113.147 67.781 113.2 67.9602 113.2H80.7852C84.2924 113.149 87.2114 110.206 87.1602 106.775C87.1346 105.086 86.4196 103.423 85.1652 102.22C84.0132 101.068 82.5024 100.425 80.9152 100.425L82.0152 81.8401C89.4648 75.7473 97.2466 65.8635 97.4002 55.9051L101.01 48.7151L76.2802 33.8901ZM83.1652 8.2451C82.89 8.2803 82.63 8.4075 82.4252 8.6251C76.9468 14.0779 75.9228 20.6039 79.8652 25.7751L81.5802 27.5151L79.6102 29.9001L103.29 44.1301L104.595 41.5201H114.04C114.603 41.5201 115.092 41.1621 115.245 40.6501L120.365 25.2901C120.519 24.9061 120.441 24.4729 120.21 24.1401C119.954 23.8073 119.57 23.6001 119.16 23.6001H109.46L102.135 16.3051C101.905 16.0491 101.573 15.9201 101.24 15.9201H96.4802L83.9852 8.4201C83.7292 8.2665 83.4404 8.2099 83.1652 8.2451ZM100.295 66.3801C97.94 72.1401 94.1482 77.0273 90.8202 80.5601L103.8 85.8851L103.725 90.0851C103.7 91.7747 104.363 93.3863 105.54 94.6151C106.743 95.8439 108.33 96.5345 110.045 96.5601H110.125C111.815 96.5601 113.402 95.9177 114.605 94.7401C115.757 93.6137 116.423 92.1573 116.525 90.5701C116.551 90.4677 116.575 90.3375 116.575 90.2351L116.6 82.4551C116.6 78.8199 114.601 75.5679 111.35 73.9551L100.295 66.3801ZM54.9052 83.7101L37.3952 84.8851C35.5264 87.4195 33.2722 89.0085 30.8402 89.9301V111.92C30.8402 112.637 31.4034 113.2 32.1202 113.2H44.9452C48.4524 113.149 51.3714 110.206 51.3202 106.775C51.2946 105.086 50.5796 103.423 49.3252 102.22C48.122 101.043 46.6098 100.375 44.9202 100.4H43.9202L46.0202 89.8551C50.3466 88.3447 53.2924 86.7053 54.9052 83.7101Z" fill="#353535"/>
</svg>
