<svg width="133" height="120" viewBox="0 0 133 120" fill="none" xmlns="http://www.w3.org/2000/svg">
<path d="M128.5 63C130.985 63 133 60.9853 133 58.5C133 56.0147 130.985 54 128.5 54C126.015 54 124 56.0147 124 58.5C124 60.9853 126.015 63 128.5 63Z" fill="#E91E63"/>
<path d="M82.0272 99.0149L69.7422 111.006C71.3502 113.784 68.8662 115.101 68.8662 115.101C68.8662 115.101 66.9642 112.761 65.2092 110.715C64.1862 109.545 64.1862 107.937 65.9412 106.329L76.1772 96.0929L83.4882 99.0179L82.0272 99.0149ZM120.052 78.6869C120.052 78.6869 116.98 77.8109 115.666 79.8569V80.0039L102.211 81.4649L102.796 87.3149L114.202 85.8539C114.202 85.8539 116.104 86.0009 117.127 84.3929C118.15 82.7819 120.052 78.6869 120.052 78.6869ZM76.0302 93.7499C76.3212 93.0179 75.8832 92.1419 75.1542 91.8479C74.8632 91.7009 68.7192 89.3609 68.7192 82.7819C68.7192 81.9059 68.1342 81.3209 67.2582 81.3209C66.3822 81.3209 65.7972 81.9059 65.7972 82.7819C65.7972 91.4099 73.1082 94.7729 73.5492 94.9199C73.6962 94.9199 74.5722 94.7729 74.7192 94.7729C75.2982 94.6289 75.8832 94.3349 76.0302 93.7499ZM99.5772 66.8399C99.5772 66.8399 95.6292 63.7679 92.2662 66.8399C92.2662 66.8399 95.1912 69.9119 96.6522 72.6899C103.087 69.6209 99.5772 66.8399 99.5772 66.8399Z" fill="#844419"/>
<path d="M121.513 88.7791C121.513 88.7791 118.297 92.4361 116.98 94.0441C115.81 95.2141 113.764 94.3351 113.764 94.3351L103.672 91.1191C102.796 92.2891 101.479 93.4591 99.5768 94.6291C96.7988 96.5311 92.2658 98.1391 87.7298 99.1621L82.0268 107.79L79.1018 116.565C81.7328 116.712 82.0268 119.49 82.0268 119.49C82.0268 119.49 77.7848 119.781 76.1768 119.49C74.5688 119.199 72.6668 117.297 73.2518 115.104L77.0528 102.528C76.6148 101.652 75.8828 100.482 74.7128 99.0181C70.6178 93.9001 76.1738 90.2431 76.1738 90.2431C76.1738 90.2431 90.3608 81.0301 93.7238 78.5431C95.9168 76.9351 96.5018 74.3011 96.6488 72.6931C103.084 69.6211 99.5738 66.8431 99.5738 66.8431C99.5738 66.8431 99.4268 66.6961 99.2828 66.6961C100.159 66.1111 101.185 65.6731 102.499 65.3791C105.862 64.5031 105.862 66.8401 112.735 66.8401C116.098 66.8401 113.467 72.5431 109.81 74.1511C107.323 75.1741 103.96 77.5141 103.96 80.0011C103.96 81.1711 105.13 83.0731 105.421 85.5571L116.974 88.9201C116.974 88.9201 117.121 88.6291 117.265 88.6291C119.611 86.8771 121.513 88.7791 121.513 88.7791ZM94.4588 69.3271C96.0668 68.0101 97.8218 66.5491 99.2858 66.5491C98.9948 66.4021 98.7008 66.2581 98.4098 66.1111C96.9488 65.3791 94.4618 64.7941 92.2688 66.8431C92.2688 66.8431 89.9288 69.9151 91.0988 71.0851C91.6778 71.6671 92.9948 70.6441 94.4588 69.3271Z" fill="#CC6C25"/>
<path d="M112.738 66.8401C112.153 66.8401 111.715 66.8401 111.277 66.8401C111.277 66.8401 112.009 69.1801 113.908 69.7651C114.493 68.1571 114.346 66.8401 112.738 66.8401Z" fill="#5D4037"/>
<path d="M106.888 68.304C106.888 69.18 106.303 69.765 105.427 69.765C104.551 69.765 103.966 68.304 103.966 68.304C103.966 68.304 104.551 66.843 105.427 66.843C106.303 66.843 106.888 67.425 106.888 68.304Z" fill="#3E2723"/>
<path d="M75.0582 37.4039C74.7732 37.7789 74.4222 38.1149 74.0112 38.3969L58.5522 44.8109C57.3762 45.6089 55.8971 45.8039 54.5561 45.3389L27.8472 38.4209C25.5012 37.6109 26.6982 33.5579 27.5112 31.2089C28.3242 28.8629 30.8862 27.6149 33.2352 28.4309L55.3662 36.0959L68.9531 30.9449C71.0111 29.5499 73.8102 30.0899 75.2052 32.1449C76.3242 33.7889 76.2012 35.9069 75.0582 37.4039Z" fill="#FFB74D"/>
<path d="M48.6699 43.815L50.4699 34.401L33.2349 28.431C30.8859 27.615 28.3239 28.86 27.5109 31.209C26.6949 33.558 25.4979 37.614 27.8469 38.421L48.6699 43.815Z" fill="#606FC4"/>
<path d="M26.9801 0.67498C32.6171 -0.69002 38.2901 2.77498 39.6551 8.41198C41.0171 14.046 37.5551 19.722 31.9181 21.087C26.2811 22.452 20.6051 18.984 19.2431 13.35C17.8811 7.71298 21.3431 2.03998 26.9801 0.67498Z" fill="#FFB74D"/>
<path d="M17.5569 118.464C16.2429 118.782 14.8119 118.659 13.5009 118.011C10.5279 116.547 9.30389 112.956 10.7679 109.977L19.0809 90.7229L19.8339 64.3619C20.0139 61.0499 22.8459 58.5089 26.1489 58.6919C29.4609 58.8719 35.4579 62.1719 35.2809 65.4839L30.9969 92.5919C30.9519 93.3959 30.7449 94.1969 30.3879 94.9229L21.5349 115.287C20.7129 116.943 19.2279 118.059 17.5569 118.464Z" fill="#B2AEAD"/>
<path d="M32.5629 81.1201C31.9569 81.2671 31.3299 81.3631 30.6849 81.3991C24.8949 81.7321 19.9329 77.3101 19.5999 71.5201L19.4859 39.1381C19.1529 33.3481 23.5689 28.3711 29.3649 28.0561C35.1549 27.7171 40.1169 32.1451 40.4499 37.9321L40.5669 70.3081C40.8609 75.4561 37.4019 79.9471 32.5629 81.1201Z" fill="#7E8CCF"/>
<path d="M6.7571 79.731C6.5381 79.785 6.3161 79.818 6.0851 79.845C3.6131 80.058 1.4261 78.222 1.2101 75.744L0.5051 55.671C0.4061 54.513 0.7601 53.361 1.4891 52.455L17.6711 32.433C20.2121 30.096 23.1281 29.391 27.8171 28.257C30.2321 27.672 27.5111 39.123 25.9481 41.055L9.6311 56.709L10.1801 74.979C10.3721 77.22 8.8781 79.218 6.7571 79.731Z" fill="#FFB74D"/>
<path d="M27.8169 28.2541C23.1249 29.3881 20.2089 30.0931 17.6709 32.4331L7.44092 45.0931L15.3549 51.2161L25.9479 41.0521C27.5079 39.1171 30.2319 27.6691 27.8169 28.2541Z" fill="#7E8CCF"/>
<path d="M49.7558 110.91C49.7558 110.874 44.8538 88.944 44.8538 88.944C44.7458 88.536 44.7458 88.536 44.5898 88.131L40.5098 71.934C40.5608 71.4 40.5938 70.86 40.5608 70.311L40.5578 69.543L19.5908 69.384L19.5998 71.52C19.8338 75.582 22.3718 78.933 25.8518 80.478L33.0428 94.41L38.1878 113.376C38.5418 116.334 41.0288 118.635 44.0828 118.635C47.3768 118.635 50.0468 115.965 50.0468 112.671C50.0498 112.05 49.9298 111.468 49.7558 110.91Z" fill="#D2CCC9"/>
</svg>
