<svg width="49" height="85" viewBox="0 0 49 85" fill="none" xmlns="http://www.w3.org/2000/svg">
<path d="M11 69.5H38H11ZM24.5 47V83V47ZM24.5 47C36.9263 47 47 36.9263 47 24.5C47 12.0736 36.9263 2 24.5 2C12.0736 2 2 12.0736 2 24.5C2 36.9263 12.0736 47 24.5 47Z" fill="#161A1D"/>
<path d="M11 69.5H38M24.5 47V83M24.5 47C36.9263 47 47 36.9263 47 24.5C47 12.0736 36.9263 2 24.5 2C12.0736 2 2 12.0736 2 24.5C2 36.9263 12.0736 47 24.5 47Z" stroke="#FF00D6" stroke-width="3.75" stroke-linecap="round" stroke-linejoin="round"/>
</svg>
