<svg width="36" height="36" viewBox="0 0 36 36" fill="none" xmlns="http://www.w3.org/2000/svg">
<path d="M16.9853 22.6755C18.0203 23.085 18.9653 23.6295 19.8158 24.3068C20.6663 24.9818 21.393 25.7693 21.9983 26.6602C23.2327 28.4581 23.8975 30.5859 23.9063 32.7668V33.75H21.9375V32.7645C21.9418 31.6008 21.7141 30.448 21.2679 29.3733C20.8217 28.2986 20.1659 27.3235 19.3388 26.505C18.5269 25.7046 17.5722 25.0636 16.524 24.615C15.4347 24.1483 14.2621 23.9072 13.077 23.9062C11.9134 23.902 10.7605 24.1297 9.68583 24.5759C8.61111 25.022 7.63604 25.6779 6.81754 26.505C6.01742 27.3171 5.37638 28.2718 4.92754 29.3197C4.46404 30.3862 4.23004 31.536 4.21879 32.7645V33.75H2.25004V32.7645C2.24428 30.5821 2.91045 28.4509 4.15804 26.6602C5.4007 24.8674 7.14554 23.4819 9.17329 22.6778C8.71263 22.3612 8.29316 21.9886 7.92454 21.5685C7.56029 21.1549 7.24542 20.7004 6.98629 20.214C6.72817 19.7281 6.53166 19.2118 6.40129 18.6772C6.26834 18.1327 6.19664 17.575 6.18754 17.0145C6.18754 16.0627 6.36754 15.1695 6.72754 14.3393C7.43147 12.6943 8.74154 11.3834 10.386 10.6785C11.2344 10.3173 12.1466 10.1299 13.0687 10.1272C13.9908 10.1245 14.904 10.3066 15.7545 10.6627C17.3999 11.3672 18.7108 12.6782 19.4153 14.3235C19.9979 15.6935 20.1218 17.2153 19.7685 18.6615C19.6335 19.1947 19.4355 19.7077 19.17 20.2005C18.9062 20.6882 18.5917 21.1467 18.2318 21.5685C17.8718 21.9893 17.4555 22.356 16.9853 22.6755ZM13.077 21.9375C13.7543 21.9375 14.391 21.8092 14.985 21.555C16.1627 21.0546 17.1001 20.1164 17.5995 18.9382C17.8673 18.333 18 17.6918 18 17.0168C18.0029 16.3724 17.8763 15.7341 17.6278 15.1397C17.3793 14.5452 17.0139 14.0068 16.5533 13.5563C16.0977 13.112 15.5667 12.7524 14.985 12.4943C14.3849 12.2262 13.7343 12.0896 13.077 12.0938C12.402 12.0938 11.7653 12.222 11.1713 12.4762C9.98708 12.9813 9.04388 13.9245 8.53879 15.1088C8.28454 15.7028 8.15629 16.3395 8.15629 17.0168C8.15629 17.6918 8.28454 18.3285 8.53879 18.9225C8.79754 19.5165 9.14629 20.0408 9.58729 20.4908C10.0438 20.9521 10.5878 21.3177 11.1875 21.5661C11.7871 21.8145 12.4303 21.9408 13.0793 21.9375H13.077ZM33.75 2.25V18H29.8125L23.9063 23.9062V18H21.9375V16.0312H25.875V19.1542L28.998 16.0312H31.7813V4.21875H12.0938V7.75575C11.7638 7.79745 11.4351 7.84922 11.1083 7.911C10.7731 7.97463 10.4442 8.06722 10.125 8.18775V2.25H33.75Z" fill="#E5383B"/>
</svg>
