<svg width="36" height="36" viewBox="0 0 36 36" fill="none" xmlns="http://www.w3.org/2000/svg">
<path d="M33.75 0H2.25C1.65326 0 1.08097 0.268899 0.65901 0.747543C0.237053 1.22619 0 1.87537 0 2.55227V28.075C0 28.7519 0.237053 29.4011 0.65901 29.8797C1.08097 30.3583 1.65326 30.6272 2.25 30.6272H19.125L19.7663 29.7339L20.8125 28.2792L20.7113 28.075H2.25V2.55227H33.75V13.476C34.6047 14.1036 35.3644 14.8835 36 15.7858V2.55227C36 1.87537 35.7629 1.22619 35.341 0.747543C34.919 0.268899 34.3467 0 33.75 0Z" fill="#E5383B"/>
<path d="M5.625 7.65686H24.75V9.69868H5.625V7.65686Z" fill="#E5383B"/>
<path d="M5.625 12.7614H18V14.8032H5.625V12.7614Z" fill="#E5383B"/>
<path d="M5.625 21.6943H16.875V23.7362H5.625V21.6943Z" fill="#E5383B"/>
<path d="M28.643 14.3312C27.2033 14.3182 25.7938 14.7982 24.5984 15.7084C23.4031 16.6185 22.4776 17.9166 21.9429 19.4329C21.4082 20.9491 21.2892 22.6131 21.6014 24.2073C21.9137 25.8015 22.6426 27.2518 23.693 28.3687L21.5105 31.3931L22.523 36L26.6405 30.3084C27.9438 30.7456 29.3309 30.7456 30.6342 30.3084L34.7517 36L35.7642 31.3931L33.5817 28.3687C34.6321 27.2518 35.361 25.8015 35.6732 24.2073C35.9855 22.6131 35.8665 20.9491 35.3318 19.4329C34.7971 17.9166 33.8716 16.6185 32.6763 15.7084C31.4809 14.7982 30.0713 14.3182 28.6317 14.3312H28.643ZM28.643 27.9603C27.687 27.9452 26.7562 27.6098 25.9678 26.9964C25.1793 26.3829 24.5684 25.5187 24.2117 24.5125C23.8551 23.5062 23.7686 22.4028 23.9633 21.341C24.1579 20.2791 24.6249 19.3063 25.3057 18.5447C25.9864 17.7832 26.8504 17.2669 27.7891 17.0608C28.7278 16.8547 29.6992 16.968 30.5813 17.3864C31.4633 17.8049 32.2166 18.5098 32.7465 19.4126C33.2764 20.3153 33.5591 21.3756 33.5592 22.4602C33.5473 23.928 33.0234 25.3307 32.1021 26.3615C31.1807 27.3923 29.937 27.9671 28.643 27.9603Z" fill="#E5383B"/>
</svg>
