<svg width="128" height="128" viewBox="0 0 128 128" fill="none" xmlns="http://www.w3.org/2000/svg">
<path d="M76.2001 82.7999C68.9001 77.5999 59.1001 77.5999 51.9001 82.7999L36.1001 94.0999H92.0001L76.2001 82.7999Z" fill="white" fill-opacity="0.35"/>
<path d="M91.9999 97.1001C91.3999 97.1001 90.7999 96.9001 90.2999 96.5001L74.4999 85.3001C68.2999 80.8001 59.8999 80.8001 53.5999 85.3001C52.2999 86.3001 50.3999 85.9001 49.3999 84.6001C48.3999 83.3001 48.7999 81.4001 50.0999 80.4001C58.3999 74.5001 69.5999 74.5001 77.8999 80.4001L93.6999 91.7001C94.9999 92.7001 95.3999 94.5001 94.3999 95.9001C93.8999 96.7001 92.8999 97.1001 91.9999 97.1001Z" fill="#E5383B" fill-opacity="0.35"/>
<path d="M115.5 121.4L111.7 119.1L111.6 118.9L105 93.4C104.7 92.1 103.5 91.2 102.1 91.2H102H36.1002H26.0002C24.6002 91.2 23.4002 92.1 23.1002 93.4L16.5002 119.1L12.6002 121.5C11.4002 122.2 10.9002 123.6 11.3002 124.9C11.7002 126.2 12.8002 127.1 14.2002 127.1H23.2002H114.2C115.5 127.1 116.7 126.2 117.1 124.9C117.5 123.6 116.7 122.1 115.5 121.4Z" fill="#353535"/>
<path d="M27.4998 118.4C27.2998 118.4 26.9998 118.4 26.6998 118.3C25.0998 117.9 24.0998 116.3 24.4998 114.6L28.3998 99.4C28.7998 97.8 30.4998 96.8 32.0998 97.2C33.6998 97.6 34.6998 99.2 34.2998 100.9L30.3998 116.1C30.0998 117.5 28.7998 118.4 27.4998 118.4Z" fill="white" fill-opacity="0.35"/>
<path d="M77 48C75.6739 48 74.4021 48.5268 73.4645 49.4645C72.5268 50.4021 72 51.6739 72 53C72 54.3261 72.5268 55.5979 73.4645 56.5355C74.4021 57.4732 75.6739 58 77 58C78.3261 58 79.5979 57.4732 80.5355 56.5355C81.4732 55.5979 82 54.3261 82 53C82 51.6739 81.4732 50.4021 80.5355 49.4645C79.5979 48.5268 78.3261 48 77 48ZM46 59C44.6739 59 43.4021 59.5268 42.4645 60.4645C41.5268 61.4021 41 62.6739 41 64C41 65.3261 41.5268 66.5979 42.4645 67.5355C43.4021 68.4732 44.6739 69 46 69C47.3261 69 48.5979 68.4732 49.5355 67.5355C50.4732 66.5979 51 65.3261 51 64C51 62.6739 50.4732 61.4021 49.5355 60.4645C48.5979 59.5268 47.3261 59 46 59ZM60 11C58.6739 11 57.4021 11.5268 56.4645 12.4645C55.5268 13.4021 55 14.6739 55 16C55 17.3261 55.5268 18.5979 56.4645 19.5355C57.4021 20.4732 58.6739 21 60 21C61.3261 21 62.5979 20.4732 63.5355 19.5355C64.4732 18.5979 65 17.3261 65 16C65 14.6739 64.4732 13.4021 63.5355 12.4645C62.5979 11.5268 61.3261 11 60 11Z" fill="#E5383B" fill-opacity="0.35"/>
</svg>
