<svg width="129" height="128" viewBox="0 0 129 128" fill="none" xmlns="http://www.w3.org/2000/svg">
<path d="M52.8795 0C35.7876 0 26.0239 8.8 22.9578 15.6C15.086 17 8.06224 21.81 3.99585 28.64C-1.19042 37.37 -1.25566 48.29 3.47396 59.92C8.02962 57.98 14.0096 56.32 21.1312 56.32C34.3415 56.32 42.9527 61.69 43.3115 61.92C44.5836 62.72 44.8772 64.28 44.0074 65.44C43.1375 66.6 41.4523 66.87 40.1802 66.08C40.1041 66.03 32.5367 61.44 21.1312 61.44C13.716 61.44 7.59471 63.61 3.47396 65.68C0.516588 70.31 -0.472828 75.96 0.951495 81.04C2.48454 86.53 6.61617 90.9 12.781 93.52C10.4216 98.52 10.6064 103.54 13.3029 107.92C16.6843 113.41 23.6102 117.11 31.3081 117.68C35.3962 128 47.5301 128 52.8795 128C56.0869 128 58.9356 127.08 61.2297 125.52V2C59.1204 0.660001 56.3805 0 52.8795 0ZM75.1468 0C71.6457 0 68.9058 0.660001 66.7965 2V125.44C69.0798 127 71.9502 127.98 75.1468 128H75.2337C81.1811 128 90.1946 125.35 94.8916 118.48C86.2913 114.54 77.9302 106.64 77.9302 94.72C77.9302 93.3 79.1805 92.16 80.7136 92.16C82.2466 92.16 83.497 93.3 83.497 94.72C83.497 107.78 95.3591 113.34 99.8495 114.96C107.004 114.16 112.244 111.63 114.897 107.68C117.431 103.91 117.518 99.2 115.071 93.6C121.584 90.89 125.933 86.26 127.423 80.48C128.586 75.98 127.771 71.12 125.422 66.96C120.203 71.6 110.787 76.8 94.6306 76.8C93.0976 76.8 91.8472 75.66 91.8472 74.24C91.8472 72.82 93.0976 71.68 94.6306 71.68C113.234 71.68 121.454 64.07 124.465 60.16C129.282 48.45 129.249 37.42 124.03 28.64C119.964 21.81 112.94 17 105.068 15.6C102.002 8.8 92.2386 0 75.1468 0ZM47.3127 25.6C48.8457 25.6 50.0961 26.74 50.0961 28.16C50.0961 31.72 46.5842 40.96 30.6122 40.96C29.0792 40.96 27.8288 39.82 27.8288 38.4C27.8288 36.98 29.0792 35.84 30.6122 35.84C41.9633 35.84 44.5292 30.15 44.5292 28.16C44.5292 26.74 45.7796 25.6 47.3127 25.6ZM86.2804 30.72C87.8134 30.72 89.0638 31.86 89.0638 33.28C89.0638 37.46 93.826 46.08 108.548 46.08C110.081 46.08 111.331 47.22 111.331 48.64C111.331 50.06 110.081 51.2 108.548 51.2C89.6183 51.2 83.497 39.13 83.497 33.28C83.497 31.86 84.7473 30.72 86.2804 30.72ZM25.4803 76.8C37.5816 78.65 44.5292 87.08 44.5292 99.84C44.5292 101.26 43.2789 102.4 41.7458 102.4C40.2128 102.4 38.9624 101.26 38.9624 99.84C38.9624 93.96 37.0488 83.83 24.5235 81.92C23.0013 81.69 22.0119 80.36 22.262 78.96C22.512 77.56 23.9472 76.55 25.4803 76.8Z" fill="#353535"/>
</svg>
