<svg width="103" height="126" viewBox="0 0 103 126" fill="none" xmlns="http://www.w3.org/2000/svg">
<path d="M90 0H51C43.8 0 38 5.8 38 13V33C38 36.9 34.9 40 31 40H12.8C10.7 40 9 38.3 9 36.2C9 34.5 7.7 33.2 6 33.2C4.3 33.2 3 34.5 3 36.2V123C3 124.7 4.3 126 6 126H7C7.8 126 8.6 125.7 9.1 125.1L17 117.2L24.9 125.1C26.1 126.3 28 126.3 29.1 125.1L37 117.2L44.9 125.1C46.1 126.3 48 126.3 49.1 125.1L57 117.2L64.9 125.1C66.1 126.3 68 126.3 69.1 125.1L77 117.2L84.9 125.1C85.5 125.7 86.3 126 87 126C87.7 126 88.5 125.7 89.1 125.1L99.1 115.1C99.7 114.5 100 113.8 100 113V86C101.7 86 103 84.7 103 83V13C103 5.8 97.2 0 90 0Z" fill="#353535"/>
<path d="M47.7 1.4L50 1L38 9V33C38 38.5 33.5 43 28 43H9.8C6 43 3 39.9 3 36.2C3 34.2 3.9 32.3 5.4 31L30.5 9.5C35.4 5.2 41.4 2.4 47.7 1.4Z" fill="white" fill-opacity="0.35"/>
<path d="M100 86C98.3 86 97 84.7 97 83V13C97 9.1 93.9 6 90 6H48C44.1 6 41 9.1 41 13V33C41 40.2 35.2 46 28 46H9.8C4.4 46 0 41.6 0 36.2C0 33.3 1.3 30.6 3.4 28.7L22 12.7C23.3 11.6 25.2 11.8 26.2 13C27.3 14.3 27.1 16.2 25.9 17.2L7.3 33.2C6.5 34 6 35 6 36.2C6 38.3 7.7 40 9.8 40H28C31.9 40 35 36.9 35 33V13C35 5.8 40.8 0 48 0H90C97.2 0 103 5.8 103 13V83C103 84.7 101.7 86 100 86Z" fill="#444B54"/>
<path d="M33.1619 57.573L33 85.5699L74.8231 85.8118L74.985 57.8148C75.027 53.7097 70.6941 55.4251 69.3358 56.6894L60.5218 63.9236L47.5534 63.8486L39.3816 56.6202C36.8025 54.1076 33.1788 54.6357 33.1619 57.573Z" fill="#0B090A" fill-opacity="0.35"/>
<circle cx="43.5225" cy="78.7675" r="5.85966" transform="rotate(0.331357 43.5225 78.7675)" fill="#E5383B" fill-opacity="0.35"/>
<circle cx="64.2729" cy="78.8876" r="5.85966" transform="rotate(0.331357 64.2729 78.8876)" fill="#E5383B" fill-opacity="0.35"/>
<path d="M51.5033 83.8131C51.5095 82.738 52.1011 82.5264 53.661 82.5354C55.4341 82.5456 55.9167 82.9247 55.9114 83.8386C55.9058 84.8006 55.3 85.2427 54.8266 85.3231C54.7388 85.338 54.6659 85.4089 54.6653 85.498C54.6648 85.587 54.5922 85.6588 54.5031 85.6583L52.8367 85.6487C52.7476 85.6481 52.6758 85.5755 52.6763 85.4865C52.6768 85.3974 52.6043 85.3264 52.5169 85.3092C51.8639 85.1809 51.5004 84.3113 51.5033 83.8131Z" fill="#6C6C6C" fill-opacity="0.35"/>
<circle cx="41.531" cy="77.6003" r="3.92436" transform="rotate(0.331357 41.531 77.6003)" fill="black" fill-opacity="0.55"/>
<circle cx="61.7995" cy="77.7473" r="3.92436" transform="rotate(0.331357 61.7995 77.7473)" fill="black" fill-opacity="0.55"/>
</svg>
