<svg width="124" height="124" viewBox="0 0 124 124" fill="none" xmlns="http://www.w3.org/2000/svg">
<path d="M116 26H8V122H116V26Z" fill="#353535"/>
<path d="M106 78H66V114H106V78Z" fill="#353535"/>
<path d="M58 78H18V114H58V78Z" fill="#353535"/>
<path d="M58 34H18V70H58V34Z" fill="#353535"/>
<path d="M106 34H66V70H106V34Z" fill="#353535"/>
<path d="M118 10H106V2H90V10H6L2 26H122L118 10Z" fill="#353535"/>
<path d="M95.2046 98.6309L100.242 95.8033L98.9753 88.1102C98.9214 87.8681 98.8052 87.6444 98.6381 87.4611C98.4711 87.2778 98.2591 87.1414 98.0231 87.0653L92.3258 85.2H79.3712L73.674 87.0653C73.4379 87.1414 73.2259 87.2778 73.0589 87.4611C72.8918 87.6444 72.7756 87.8682 72.7217 88.1102L71.4546 95.8033L76.4924 98.631V104.286L73.6136 114H98.0834L95.2046 104.286V98.6309Z" fill="#E5383B" fill-opacity="0.95"/>
<path d="M52.2424 95.8033L50.9754 88.1102C50.9214 87.8681 50.8052 87.6444 50.6381 87.4611C50.4711 87.2778 50.2591 87.1414 50.0231 87.0653L44.3258 85.2H31.3712L25.674 87.0653C25.4379 87.1414 25.2259 87.2778 25.0589 87.4611C24.8918 87.6444 24.7756 87.8682 24.7217 88.1102L23.4546 95.8033L28.4924 98.631V104.286L25.6136 114H50.0834L47.2046 104.286V98.6309L52.2424 95.8033Z" fill="#E5383B" fill-opacity="0.74"/>
<path d="M32.8505 44.299L28.1005 41.1572V55.2952L24 70H48.6838L45.5172 61.5786L48.3495 55.9585C48.5721 54.7023 48.6839 53.4291 48.6838 52.1533V41.1573L43.9338 44.2991L32.8505 44.299Z" fill="#E5383B" fill-opacity="0.55"/>
<path d="M96.6838 52.1532V41.1572L91.9338 44.299H80.8505L76.1005 41.1572V55.2952L72 69.9999H96.6838L93.5172 61.5785L96.3495 55.9584C96.5721 54.7022 96.6839 53.429 96.6838 52.1532Z" fill="#E5383B" fill-opacity="0.35"/>
<path d="M106 7.2946e-08H89.9998C89.7372 -7.0875e-05 89.4771 0.0516123 89.2344 0.152097C88.9917 0.252581 88.7712 0.399897 88.5854 0.585628C88.3997 0.77136 88.2524 0.991866 88.1519 1.23455C88.0514 1.47723 87.9998 1.73734 87.9998 2V8H5.99982C5.55394 8.00007 5.12088 8.14917 4.76947 8.42361C4.41806 8.69804 4.16847 9.08207 4.06036 9.51464L0.0603599 25.5146C-0.0134511 25.8095 -0.0190925 26.1172 0.0438644 26.4145C0.106821 26.7119 0.23672 26.9909 0.423691 27.2305C0.610661 27.4701 0.849785 27.664 1.12289 27.7973C1.396 27.9306 1.6959 27.9999 1.99982 28H5.99982V122C5.99975 122.263 6.05143 122.523 6.15192 122.765C6.2524 123.008 6.39972 123.229 6.58545 123.414C6.77118 123.6 6.99169 123.747 7.23437 123.848C7.47705 123.948 7.73716 124 7.99982 124H116C116.262 124 116.523 123.948 116.765 123.848C117.008 123.747 117.228 123.6 117.414 123.414C117.6 123.229 117.747 123.008 117.848 122.765C117.948 122.523 118 122.263 118 122V28H122C122.304 27.9999 122.604 27.9306 122.877 27.7973C123.15 27.6639 123.389 27.4701 123.576 27.2305C123.763 26.9909 123.893 26.7119 123.956 26.4145C124.019 26.1172 124.013 25.8095 123.939 25.5146L119.939 9.51464C119.831 9.08207 119.582 8.69805 119.23 8.42361C118.879 8.14917 118.446 8.00007 118 8H108V2C108 1.73734 107.948 1.47723 107.848 1.23455C107.747 0.99187 107.6 0.771365 107.414 0.585634C107.228 0.399903 107.008 0.252587 106.765 0.152102C106.523 0.0516166 106.262 -6.82461e-05 106 7.2946e-08ZM114 120H9.99982V28H114V120ZM116.437 12L119.437 24H4.56232L7.56232 12H89.9998C90.2625 12.0001 90.5226 11.9484 90.7653 11.8479C91.0079 11.7474 91.2285 11.6001 91.4142 11.4144C91.5999 11.2286 91.7472 11.0081 91.8477 10.7654C91.9482 10.5228 91.9999 10.2627 91.9998 10V4H104V10C104 10.2627 104.051 10.5228 104.152 10.7655C104.252 11.0081 104.4 11.2286 104.585 11.4144C104.771 11.6001 104.992 11.7474 105.234 11.8479C105.477 11.9484 105.737 12.0001 106 12H116.437Z" fill="black" fill-opacity="0.35"/>
<path d="M66 116H106C106.263 116 106.523 115.948 106.765 115.848C107.008 115.747 107.229 115.6 107.414 115.414C107.6 115.229 107.747 115.008 107.848 114.765C107.948 114.523 108 114.263 108 114V78C108 77.7373 107.948 77.4772 107.848 77.2346C107.747 76.9919 107.6 76.7714 107.414 76.5856C107.229 76.3999 107.008 76.2526 106.765 76.1521C106.523 76.0516 106.263 75.9999 106 76H66C65.7373 75.9999 65.4772 76.0516 65.2345 76.1521C64.9919 76.2526 64.7714 76.3999 64.5856 76.5856C64.3999 76.7714 64.2526 76.9919 64.1521 77.2346C64.0516 77.4772 63.9999 77.7373 64 78V114C63.9999 114.263 64.0516 114.523 64.1521 114.765C64.2526 115.008 64.3999 115.229 64.5856 115.414C64.7714 115.6 64.9919 115.747 65.2345 115.848C65.4772 115.948 65.7373 116 66 116ZM76.2925 112L78.4102 104.854C78.4648 104.67 78.4924 104.479 78.4922 104.286V98.6309C78.4922 98.2756 78.3975 97.9268 78.218 97.6203C78.0385 97.3137 77.7806 97.0605 77.4708 96.8867L73.6562 94.7451L74.6211 88.8594L79.6894 87.2002H92.0078L97.0703 88.8584L98.041 94.7461L94.2266 96.8867C93.9167 97.0605 93.6588 97.3137 93.4793 97.6203C93.2998 97.9268 93.2051 98.2756 93.2051 98.6309V104.286C93.2049 104.479 93.2326 104.67 93.2871 104.854L95.4048 112H76.2925ZM68 80H104V112H99.5776L97.2051 103.996V99.8018L101.221 97.5478C101.579 97.3467 101.866 97.0402 102.044 96.67C102.222 96.2997 102.282 95.8837 102.215 95.4784L100.93 87.6884C100.801 87.1056 100.523 86.5664 100.123 86.1239C99.7224 85.6814 99.2136 85.3509 98.6465 85.165L92.9492 83.2997C92.7482 83.2336 92.5378 83.2 92.3262 83.2001H79.3711C79.1594 83.2 78.9491 83.2336 78.748 83.2997L73.0508 85.165C72.47 85.3601 71.9511 85.7054 71.5467 86.1657C71.1423 86.626 70.8668 87.185 70.748 87.7861L69.4824 95.4794C69.4155 95.8846 69.475 96.3005 69.6529 96.6706C69.8308 97.0407 70.1184 97.347 70.4766 97.5478L74.4922 99.8018V103.996L72.1196 112H68V80Z" fill="black" fill-opacity="0.35"/>
<path d="M18 116H58C58.2627 116 58.5228 115.948 58.7654 115.848C59.0081 115.747 59.2286 115.6 59.4144 115.414C59.6001 115.229 59.7474 115.008 59.8479 114.765C59.9484 114.523 60.0001 114.263 60 114V78C60.0001 77.7373 59.9484 77.4772 59.8479 77.2346C59.7474 76.9919 59.6001 76.7714 59.4144 76.5856C59.2286 76.3999 59.0081 76.2526 58.7654 76.1521C58.5228 76.0516 58.2627 75.9999 58 76H18C17.7373 75.9999 17.4772 76.0516 17.2346 76.1521C16.9919 76.2526 16.7714 76.3999 16.5856 76.5856C16.3999 76.7714 16.2526 76.9919 16.1521 77.2346C16.0516 77.4772 15.9999 77.7373 16 78V114C15.9999 114.263 16.0516 114.523 16.1521 114.765C16.2526 115.008 16.3999 115.229 16.5856 115.414C16.7714 115.6 16.9919 115.747 17.2346 115.848C17.4772 115.948 17.7373 116 18 116ZM28.2925 112L30.4102 104.854C30.4648 104.67 30.4924 104.479 30.4922 104.286V98.6309C30.4922 98.2756 30.3975 97.9268 30.218 97.6203C30.0385 97.3137 29.7806 97.0605 29.4708 96.8867L25.6562 94.7451L26.6211 88.8594L31.6894 87.2002H44.0078L49.0703 88.8584L50.041 94.7461L46.2266 96.8867C45.9168 97.0605 45.6588 97.3137 45.4793 97.6203C45.2998 97.9268 45.2051 98.2756 45.2051 98.6309V104.286C45.2049 104.479 45.2326 104.67 45.2871 104.854L47.4048 112H28.2925ZM20 80H56V112H51.5776L49.2051 103.996V99.8018L53.2207 97.5478C53.5789 97.3467 53.8665 97.0402 54.0444 96.67C54.2222 96.2997 54.2818 95.8837 54.2148 95.4784L52.9297 87.6884C52.8013 87.1056 52.5232 86.5664 52.1228 86.1239C51.7224 85.6814 51.2136 85.3509 50.6465 85.165L44.9492 83.2997C44.7482 83.2336 44.5378 83.2 44.3262 83.2001H31.3711C31.1594 83.2 30.9491 83.2336 30.748 83.2997L25.0508 85.165C24.47 85.3601 23.9511 85.7054 23.5467 86.1657C23.1423 86.626 22.8668 87.185 22.748 87.7861L21.4824 95.4794C21.4155 95.8846 21.475 96.3005 21.6529 96.6706C21.8308 97.0407 22.1184 97.347 22.4766 97.5478L26.4922 99.8018V103.996L24.1196 112H20V80Z" fill="black" fill-opacity="0.35"/>
<path d="M18 72H58C58.2627 72.0001 58.5228 71.9484 58.7654 71.8479C59.0081 71.7474 59.2286 71.6001 59.4144 71.4144C59.6001 71.2286 59.7474 71.0081 59.8479 70.7654C59.9484 70.5228 60.0001 70.2627 60 70V34C60.0001 33.7373 59.9484 33.4772 59.8479 33.2346C59.7474 32.9919 59.6001 32.7714 59.4144 32.5856C59.2286 32.3999 59.0081 32.2526 58.7654 32.1521C58.5228 32.0516 58.2627 31.9999 58 32H18C17.7373 31.9999 17.4772 32.0516 17.2346 32.1521C16.9919 32.2526 16.7714 32.3999 16.5856 32.5856C16.3999 32.7714 16.2526 32.9919 16.1521 33.2346C16.0516 33.4772 15.9999 33.7373 16 34V70C15.9999 70.2627 16.0516 70.5228 16.1521 70.7654C16.2526 71.0081 16.3999 71.2286 16.5856 71.4144C16.7714 71.6001 16.9919 71.7474 17.2346 71.8479C17.4772 71.9484 17.7373 72.0001 18 72ZM46.6836 52.1533C46.6836 52.7109 46.5859 54.6153 46.4805 55.2227L43.7325 60.6787C43.6078 60.9256 43.5358 61.1957 43.521 61.4719C43.5062 61.7481 43.5489 62.0243 43.6465 62.2831L45.7958 68H26.6331L30.0254 55.832C30.0744 55.6572 30.0994 55.4765 30.0996 55.2949V44.878L31.7461 45.9669C32.0734 46.1834 32.4572 46.2989 32.8496 46.2989H43.9336C44.3261 46.2989 44.7098 46.1834 45.0371 45.9669L46.6836 44.878L46.6836 52.1533ZM20 36H56V68H50.0674L47.6973 61.6963L50.1348 56.8613C50.5314 55.3243 50.7161 53.7403 50.6836 52.1533V41.1573C50.6837 40.7959 50.5858 40.4412 50.4004 40.1309C50.215 39.8207 49.9489 39.5665 49.6306 39.3954C49.3122 39.2243 48.9534 39.1427 48.5923 39.1592C48.2313 39.1757 47.8815 39.2898 47.5801 39.4893L43.3321 42.2989H33.4512L29.2032 39.4893C28.9018 39.2898 28.5519 39.1757 28.1909 39.1592C27.8298 39.1427 27.471 39.2243 27.1527 39.3954C26.8343 39.5665 26.5683 39.8207 26.3828 40.1309C26.1974 40.4412 26.0996 40.7959 26.0996 41.1573V55.0216L22.4819 68H19.9999L20 36Z" fill="black" fill-opacity="0.35"/>
<path d="M66 72H106C106.263 72.0001 106.523 71.9484 106.765 71.8479C107.008 71.7474 107.229 71.6001 107.414 71.4144C107.6 71.2286 107.747 71.0081 107.848 70.7654C107.948 70.5228 108 70.2627 108 70V34C108 33.7373 107.948 33.4772 107.848 33.2346C107.747 32.9919 107.6 32.7714 107.414 32.5856C107.229 32.3999 107.008 32.2526 106.765 32.1521C106.523 32.0516 106.263 31.9999 106 32H66C65.7373 31.9999 65.4772 32.0516 65.2345 32.1521C64.9919 32.2526 64.7714 32.3999 64.5856 32.5856C64.3999 32.7714 64.2526 32.9919 64.1521 33.2346C64.0516 33.4772 63.9999 33.7373 64 34V70C63.9999 70.2627 64.0516 70.5228 64.1521 70.7654C64.2526 71.0081 64.3999 71.2286 64.5856 71.4144C64.7714 71.6001 64.9919 71.7474 65.2345 71.8479C65.4772 71.9484 65.7373 72.0001 66 72ZM94.6836 52.1533C94.6836 52.7109 94.5859 54.6153 94.4805 55.2227L91.7325 60.6787C91.6078 60.9256 91.5358 61.1957 91.521 61.4719C91.5062 61.7481 91.5489 62.0243 91.6465 62.2831L93.7958 68H74.6331L78.0254 55.832C78.0744 55.6572 78.0994 55.4765 78.0996 55.2949V44.878L79.7461 45.9669C80.0734 46.1834 80.4571 46.2989 80.8496 46.2989H91.9336C92.326 46.2989 92.7098 46.1834 93.0371 45.9669L94.6836 44.878L94.6836 52.1533ZM68 36H104V68H98.0674L95.6973 61.6963L98.1348 56.8613C98.5314 55.3243 98.7161 53.7403 98.6836 52.1533V41.1573C98.6837 40.7959 98.5858 40.4412 98.4004 40.1309C98.215 39.8207 97.9489 39.5665 97.6306 39.3954C97.3122 39.2243 96.9534 39.1427 96.5923 39.1592C96.2313 39.1757 95.8815 39.2898 95.5801 39.4893L91.3321 42.2989H81.4512L77.2032 39.4893C76.9018 39.2898 76.5519 39.1757 76.1909 39.1592C75.8298 39.1427 75.471 39.2243 75.1527 39.3954C74.8343 39.5665 74.5683 39.8207 74.3828 40.1309C74.1974 40.4412 74.0996 40.7959 74.0996 41.1573V55.0216L70.4819 68H67.9999L68 36Z" fill="black" fill-opacity="0.35"/>
<path d="M34.582 53C35.4105 53 36.082 52.3284 36.082 51.5C36.082 50.6716 35.4105 50 34.582 50C33.7536 50 33.082 50.6716 33.082 51.5C33.082 52.3284 33.7536 53 34.582 53Z" fill="black"/>
<path d="M42.5 53C43.3284 53 44 52.3284 44 51.5C44 50.6716 43.3284 50 42.5 50C41.6716 50 41 50.6716 41 51.5C41 52.3284 41.6716 53 42.5 53Z" fill="black"/>
<path d="M82.582 53C83.4105 53 84.082 52.3284 84.082 51.5C84.082 50.6716 83.4105 50 82.582 50C81.7536 50 81.082 50.6716 81.082 51.5C81.082 52.3284 81.7536 53 82.582 53Z" fill="black"/>
<path d="M90.5 53C91.3284 53 92 52.3284 92 51.5C92 50.6716 91.3284 50 90.5 50C89.6716 50 89 50.6716 89 51.5C89 52.3284 89.6716 53 90.5 53Z" fill="black"/>
<path d="M81.0498 95.7161C81.8782 95.7161 82.5498 95.0445 82.5498 94.2161C82.5498 93.3876 81.8782 92.7161 81.0498 92.7161C80.2214 92.7161 79.5498 93.3876 79.5498 94.2161C79.5498 95.0445 80.2214 95.7161 81.0498 95.7161Z" fill="black"/>
<path d="M90.5498 95.7161C91.3782 95.7161 92.0498 95.0445 92.0498 94.2161C92.0498 93.3876 91.3782 92.7161 90.5498 92.7161C89.7214 92.7161 89.0498 93.3876 89.0498 94.2161C89.0498 95.0445 89.7214 95.7161 90.5498 95.7161Z" fill="black"/>
<path d="M86.3125 98.9999H85.455C85.0478 98.9907 84.6536 99.1434 84.359 99.4247C84.0644 99.7059 83.8934 100.093 83.8838 100.5C83.8934 100.907 84.0643 101.294 84.3589 101.575C84.6535 101.856 85.0478 102.009 85.455 102H86.3125C86.7197 102.009 87.114 101.856 87.4086 101.575C87.7032 101.294 87.8741 100.907 87.8838 100.5C87.8741 100.093 87.7032 99.7059 87.4086 99.4247C87.1139 99.1434 86.7197 98.9907 86.3125 98.9999Z" fill="black"/>
<path d="M33.0142 95.7161C33.8426 95.7161 34.5142 95.0445 34.5142 94.2161C34.5142 93.3876 33.8426 92.7161 33.0142 92.7161C32.1857 92.7161 31.5142 93.3876 31.5142 94.2161C31.5142 95.0445 32.1857 95.7161 33.0142 95.7161Z" fill="black"/>
<path d="M42.5142 95.7161C43.3426 95.7161 44.0142 95.0445 44.0142 94.2161C44.0142 93.3876 43.3426 92.7161 42.5142 92.7161C41.6857 92.7161 41.0142 93.3876 41.0142 94.2161C41.0142 95.0445 41.6857 95.7161 42.5142 95.7161Z" fill="black"/>
<path d="M38.2764 98.9999H37.4188C37.0116 98.9907 36.6174 99.1434 36.3228 99.4247C36.0282 99.7059 35.8573 100.093 35.8477 100.5C35.8573 100.907 36.0282 101.294 36.3228 101.575C36.6174 101.856 37.0116 102.009 37.4188 102H38.2764C38.6836 102.009 39.0778 101.856 39.3724 101.575C39.6671 101.294 39.838 100.907 39.8477 100.5C39.838 100.093 39.667 99.7059 39.3724 99.4247C39.0778 99.1434 38.6836 98.9907 38.2764 98.9999Z" fill="black"/>
</svg>
