<svg width="48" height="65" viewBox="0 0 48 65" fill="none" xmlns="http://www.w3.org/2000/svg">
<path d="M23.963 -5.90025e-05C23.7029 0.00756457 23.456 0.116277 23.2747 0.302994C23.0935 0.48971 22.9922 0.739723 22.9923 0.999941V2.08783C21.9332 2.26444 20.9414 2.72339 20.1212 3.41635C19.3011 4.1093 18.683 5.01061 18.3321 6.02533C17.6269 5.55525 16.829 5.24219 15.9923 5.10736V3.99994C15.9923 3.73472 15.8869 3.48037 15.6994 3.29283C15.5118 3.1053 15.2575 2.99994 14.9923 2.99994C14.7271 2.99994 14.4727 3.1053 14.2852 3.29283C14.0976 3.48037 13.9923 3.73472 13.9923 3.99994V5.08783C12.575 5.36247 11.2988 6.12499 10.3853 7.24289C9.47187 8.36079 8.97897 9.7634 8.99228 11.207V15.121L6.45712 17.6562C5.99151 18.1195 5.62233 18.6704 5.3709 19.2772C5.11948 19.8839 4.99079 20.5345 4.99228 21.1913V38.9199L0.332119 43.5761C0.237029 43.6685 0.161248 43.7788 0.109182 43.9007C0.0571164 44.0226 0.0298047 44.1536 0.0288353 44.2862C0.027866 44.4187 0.0532581 44.5501 0.103536 44.6728C0.153813 44.7954 0.227973 44.9069 0.321702 45.0006C0.415431 45.0943 0.526858 45.1685 0.649506 45.2188C0.772153 45.269 0.903572 45.2944 1.03612 45.2935C1.16867 45.2925 1.2997 45.2652 1.4216 45.2131C1.5435 45.161 1.65383 45.0853 1.74618 44.9902L6.6954 40.0429C6.7885 39.9498 6.8623 39.8393 6.91257 39.7176C6.96285 39.596 6.98861 39.4656 6.98837 39.3339V21.1913C6.98744 20.7973 7.06464 20.4069 7.2155 20.0428C7.36636 19.6787 7.58789 19.3482 7.86728 19.0703L8.98837 17.9492V23.4003C8.98628 25.949 9.7408 28.441 11.1563 30.5605C12.3525 32.3509 12.9901 34.4561 12.9884 36.6093C12.9933 36.7122 13.0144 36.8137 13.0509 36.9101L13.0118 41.5722C12.994 41.7266 13.0116 41.8831 13.0634 42.0296C13.1152 42.1762 13.1997 42.309 13.3106 42.4179C13.4508 42.5557 13.6284 42.6492 13.8214 42.6866C14.0144 42.7241 14.2141 42.7038 14.3956 42.6284C14.5771 42.5529 14.7324 42.4257 14.842 42.2625C14.9516 42.0993 15.0106 41.9074 15.0118 41.7109L15.0997 30.582C15.2806 29.8752 15.7129 29.2586 16.3156 28.8475C16.9183 28.4365 17.6502 28.2591 18.3742 28.3487C19.0982 28.4382 19.7648 28.7885 20.2492 29.334C20.7336 29.8796 21.0027 30.5829 21.0059 31.3124V44.2851C21.0042 45.0794 20.689 45.841 20.129 46.4042L11.6427 54.8906C11.4628 55.0796 11.3639 55.3315 11.3672 55.5924C11.3704 55.8534 11.4755 56.1027 11.66 56.2873C11.8446 56.4718 12.0939 56.5769 12.3548 56.5801C12.6158 56.5834 12.8677 56.4845 13.0567 56.3046L21.5431 47.8183C22.4777 46.8788 23.0034 45.6083 23.0059 44.2831V31.3124C23.0074 30.0985 22.5662 28.9257 21.7651 28.0136C20.964 27.1015 19.8579 26.5127 18.6539 26.3575C17.4499 26.2023 16.2306 26.4914 15.2244 27.1705C14.2182 27.8496 13.4941 28.8722 13.1876 30.0468C13.0676 29.8468 12.9475 29.6453 12.8165 29.4453C11.6206 27.6547 10.983 25.5496 10.9845 23.3964V11.207C10.9643 10.1786 11.3278 9.17966 12.0041 8.40477C12.6804 7.62988 13.6211 7.13462 14.6427 7.01557C15.3212 6.95895 16.003 7.07715 16.6229 7.35889C17.2428 7.64063 17.7801 8.07651 18.1837 8.62494C18.3105 8.79187 18.4868 8.91444 18.6875 8.97513C18.8881 9.03581 19.1028 9.03151 19.3009 8.96283C19.5015 8.89397 19.6756 8.76415 19.7989 8.59152C19.9221 8.41888 19.9884 8.21206 19.9884 7.99994C19.9899 7.36828 20.1403 6.74588 20.4273 6.18323C20.7144 5.62059 21.1301 5.13356 21.6407 4.76166C22.1699 4.38379 22.7815 4.1376 23.4249 4.0435C24.0682 3.94941 24.7247 4.01014 25.3399 4.22064C26.1236 4.49859 26.8004 5.01543 27.2748 5.69835C27.7493 6.38127 27.9975 7.19584 27.9845 8.02728C27.9849 8.23683 28.0511 8.44096 28.1738 8.61084C28.2965 8.78071 28.4694 8.90775 28.6682 8.97402C28.867 9.04029 29.0816 9.04243 29.2817 8.98014C29.4818 8.91785 29.6572 8.79429 29.7833 8.62689C30.188 8.07923 30.7259 7.64397 31.3459 7.36233C31.9659 7.08069 32.6475 6.96201 33.3263 7.01752C34.348 7.13662 35.2888 7.63222 35.9648 8.40758C36.6409 9.18294 37.0037 10.1824 36.9825 11.2109V23.4003C36.9842 25.5535 36.3466 27.6588 35.1505 29.4492C34.0696 31.0715 33.3711 32.918 33.1075 34.8496C32.2266 34.1256 31.1227 33.7282 29.9825 33.7246C28.6564 33.7246 27.3847 34.2513 26.447 35.189C25.5093 36.1267 24.9825 37.3985 24.9825 38.7246V51.6953C24.9812 52.352 25.11 53.0026 25.3614 53.6093C25.6128 54.2161 25.9819 54.7671 26.4474 55.2304L34.9337 63.7167C35.0257 63.8134 35.1361 63.8907 35.2584 63.9441C35.3807 63.9974 35.5124 64.0258 35.6459 64.0274C35.7793 64.0291 35.9117 64.004 36.0353 63.9537C36.1589 63.9034 36.2712 63.8289 36.3656 63.7346C36.4599 63.6402 36.5344 63.5279 36.5847 63.4043C36.635 63.2807 36.6601 63.1483 36.6584 63.0149C36.6568 62.8814 36.6284 62.7497 36.5751 62.6274C36.5217 62.5051 36.4444 62.3947 36.3477 62.3027L27.8614 53.8163C27.5823 53.5382 27.3609 53.2076 27.2101 52.8436C27.0593 52.4796 26.9819 52.0893 26.9825 51.6953V38.7167C26.9825 37.9211 27.2986 37.158 27.8612 36.5954C28.4238 36.0328 29.1869 35.7167 29.9825 35.7167C30.7761 35.7167 31.5374 36.0312 32.0997 36.5913C32.662 37.1513 32.9794 37.9114 32.9825 38.705V49.0996C32.9817 49.2988 33.0405 49.4938 33.1513 49.6595C33.2621 49.8251 33.4199 49.9539 33.6044 50.0292C33.7889 50.1046 33.9917 50.1231 34.1868 50.0824C34.3819 50.0416 34.5603 49.9436 34.6993 49.8007L34.7188 49.7792C34.8276 49.6683 34.9083 49.5329 34.9542 49.3845C35 49.236 35.0098 49.0787 34.9825 48.9257V36.5996C34.9811 34.4464 35.6187 32.3413 36.8145 30.5507C37.8902 28.9435 38.5892 27.1142 38.8595 25.1992L40.1329 26.4726C40.6933 27.0366 41.0091 27.7986 41.0118 28.5937V46.7363C41.0118 47.0015 41.1172 47.2558 41.3048 47.4433L46.254 52.3945C46.4418 52.582 46.6963 52.6872 46.9617 52.687C47.2271 52.6869 47.4815 52.5813 47.669 52.3935C47.8565 52.2057 47.9618 51.9511 47.9616 51.6858C47.9614 51.4204 47.8558 51.166 47.6681 50.9785L43.0118 46.3222V28.5937C43.0135 27.9369 42.8848 27.2862 42.6334 26.6794C42.382 26.0726 42.0127 25.5217 41.547 25.0585L38.9884 22.4999V11.207C39.0017 9.7634 38.5088 8.36079 37.5953 7.24289C36.6819 6.12499 35.4056 5.36247 33.9884 5.08783V3.99994C33.9884 3.73472 33.883 3.48037 33.6955 3.29283C33.5079 3.1053 33.2536 2.99994 32.9884 2.99994C32.7232 2.99994 32.4688 3.1053 32.2813 3.29283C32.0937 3.48037 31.9884 3.73472 31.9884 3.99994V5.10541C31.1583 5.24007 30.3666 5.55037 29.6661 6.01557C29.3812 5.15293 28.8982 4.36902 28.2558 3.72664C27.6134 3.08425 26.8295 2.60126 25.9669 2.31635C25.6482 2.21644 25.3224 2.1407 24.9923 2.08978V0.999941C24.9923 0.866117 24.9655 0.733643 24.9135 0.610367C24.8614 0.487092 24.7851 0.375523 24.6891 0.282271C24.5931 0.189019 24.4794 0.115981 24.3547 0.067485C24.2299 0.0189886 24.0967 -0.00397965 23.963 -5.90025e-05ZM23.9903 7.99994C23.7251 7.99994 23.4708 8.1053 23.2832 8.29283C23.0957 8.48037 22.9903 8.73472 22.9903 8.99994C22.9903 9.26516 23.0957 9.51951 23.2832 9.70705C23.4708 9.89458 23.7251 9.99994 23.9903 9.99994C24.2555 9.99994 24.5099 9.89458 24.6974 9.70705C24.885 9.51951 24.9903 9.26516 24.9903 8.99994C24.9903 8.73472 24.885 8.48037 24.6974 8.29283C24.5099 8.1053 24.2555 7.99994 23.9903 7.99994ZM14.9903 10.9999C14.7251 10.9999 14.4708 11.1053 14.2832 11.2928C14.0957 11.4804 13.9903 11.7347 13.9903 11.9999C13.9903 12.1977 14.049 12.3911 14.1589 12.5555C14.2687 12.72 14.4249 12.8481 14.6076 12.9238C14.7904 12.9995 14.9914 13.0193 15.1854 12.9807C15.3794 12.9421 15.5576 12.8469 15.6974 12.707C15.8373 12.5672 15.9325 12.389 15.9711 12.195C16.0097 12.0011 15.9899 11.8 15.9142 11.6173C15.8385 11.4345 15.7103 11.2784 15.5459 11.1685C15.3814 11.0586 15.1881 10.9999 14.9903 10.9999ZM32.9903 10.9999C32.7251 10.9999 32.4708 11.1053 32.2832 11.2928C32.0957 11.4804 31.9903 11.7347 31.9903 11.9999C31.9903 12.2652 32.0957 12.5195 32.2832 12.707C32.4708 12.8946 32.7251 12.9999 32.9903 12.9999C33.2555 12.9999 33.5099 12.8946 33.6974 12.707C33.885 12.5195 33.9903 12.2652 33.9903 11.9999C33.9903 11.7347 33.885 11.4804 33.6974 11.2928C33.5099 11.1053 33.2555 10.9999 32.9903 10.9999ZM23.9884 12.9999C22.2651 13.0021 20.613 13.6876 19.3945 14.9061C18.176 16.1246 17.4905 17.7767 17.4884 19.4999C17.4884 20.7855 17.8696 22.0422 18.5838 23.1111C19.298 24.1801 20.3132 25.0132 21.5009 25.5052C22.6886 25.9971 23.9956 26.1258 25.2565 25.875C26.5173 25.6242 27.6755 25.0052 28.5846 24.0961C29.4936 23.1871 30.1127 22.0289 30.3635 20.768C30.6143 19.5072 30.4856 18.2002 29.9936 17.0125C29.5016 15.8248 28.6685 14.8096 27.5996 14.0954C26.5307 13.3812 25.2739 12.9999 23.9884 12.9999ZM23.9884 14.9999C24.8784 14.9999 25.7484 15.2639 26.4884 15.7583C27.2285 16.2528 27.8052 16.9556 28.1458 17.7779C28.4864 18.6001 28.5755 19.5049 28.4019 20.3778C28.2283 21.2508 27.7997 22.0526 27.1703 22.6819C26.541 23.3113 25.7392 23.7398 24.8663 23.9135C23.9934 24.0871 23.0886 23.998 22.2663 23.6574C21.444 23.3168 20.7412 22.74 20.2468 22C19.7523 21.26 19.4884 20.39 19.4884 19.4999C19.4884 18.3065 19.9625 17.1619 20.8064 16.318C21.6503 15.474 22.7949 14.9999 23.9884 14.9999Z" fill="#E5383B"/>
<path d="M23.963 -5.90025e-05C23.7029 0.00756457 23.456 0.116277 23.2747 0.302994C23.0935 0.48971 22.9922 0.739723 22.9923 0.999941V2.08783C21.9332 2.26444 20.9414 2.72339 20.1212 3.41635C19.3011 4.1093 18.683 5.01061 18.3321 6.02533C17.6269 5.55525 16.829 5.24219 15.9923 5.10736V3.99994C15.9923 3.73472 15.8869 3.48037 15.6994 3.29283C15.5118 3.1053 15.2575 2.99994 14.9923 2.99994C14.7271 2.99994 14.4727 3.1053 14.2852 3.29283C14.0976 3.48037 13.9923 3.73472 13.9923 3.99994V5.08783C12.575 5.36247 11.2988 6.12499 10.3853 7.24289C9.47187 8.36079 8.97897 9.7634 8.99228 11.207V15.121L6.45712 17.6562C5.99151 18.1195 5.62233 18.6704 5.3709 19.2772C5.11948 19.8839 4.99079 20.5345 4.99228 21.1913V38.9199L0.332119 43.5761C0.237029 43.6685 0.161248 43.7788 0.109182 43.9007C0.0571164 44.0226 0.0298047 44.1536 0.0288353 44.2862C0.027866 44.4187 0.0532581 44.5501 0.103536 44.6728C0.153813 44.7954 0.227973 44.9069 0.321702 45.0006C0.415431 45.0943 0.526858 45.1685 0.649506 45.2188C0.772153 45.269 0.903572 45.2944 1.03612 45.2935C1.16867 45.2925 1.2997 45.2652 1.4216 45.2131C1.5435 45.161 1.65383 45.0853 1.74618 44.9902L6.6954 40.0429C6.7885 39.9498 6.8623 39.8393 6.91257 39.7176C6.96285 39.596 6.98861 39.4656 6.98837 39.3339V21.1913C6.98744 20.7973 7.06464 20.4069 7.2155 20.0428C7.36636 19.6787 7.58789 19.3482 7.86728 19.0703L8.98837 17.9492V23.4003C8.98628 25.949 9.7408 28.441 11.1563 30.5605C12.3525 32.3509 12.9901 34.4561 12.9884 36.6093C12.9933 36.7122 13.0144 36.8137 13.0509 36.9101L13.0118 41.5722C12.994 41.7266 13.0116 41.8831 13.0634 42.0296C13.1152 42.1762 13.1997 42.309 13.3106 42.4179C13.4508 42.5557 13.6284 42.6492 13.8214 42.6866C14.0144 42.7241 14.2141 42.7038 14.3956 42.6284C14.5771 42.5529 14.7324 42.4257 14.842 42.2625C14.9516 42.0993 15.0106 41.9074 15.0118 41.7109L15.0997 30.582C15.2806 29.8752 15.7129 29.2586 16.3156 28.8475C16.9183 28.4365 17.6502 28.2591 18.3742 28.3487C19.0982 28.4382 19.7648 28.7885 20.2492 29.334C20.7336 29.8796 21.0027 30.5829 21.0059 31.3124V44.2851C21.0042 45.0794 20.689 45.841 20.129 46.4042L11.6427 54.8906C11.4628 55.0796 11.3639 55.3315 11.3672 55.5924C11.3704 55.8534 11.4755 56.1027 11.66 56.2873C11.8446 56.4718 12.0939 56.5769 12.3548 56.5801C12.6158 56.5834 12.8677 56.4845 13.0567 56.3046L21.5431 47.8183C22.4777 46.8788 23.0034 45.6083 23.0059 44.2831V31.3124C23.0074 30.0985 22.5662 28.9257 21.7651 28.0136C20.964 27.1015 19.8579 26.5127 18.6539 26.3575C17.4499 26.2023 16.2306 26.4914 15.2244 27.1705C14.2182 27.8496 13.4941 28.8722 13.1876 30.0468C13.0676 29.8468 12.9475 29.6453 12.8165 29.4453C11.6206 27.6547 10.983 25.5496 10.9845 23.3964V11.207C10.9643 10.1786 11.3278 9.17966 12.0041 8.40477C12.6804 7.62988 13.6211 7.13462 14.6427 7.01557C15.3212 6.95895 16.003 7.07715 16.6229 7.35889C17.2428 7.64063 17.7801 8.07651 18.1837 8.62494C18.3105 8.79187 18.4868 8.91444 18.6875 8.97513C18.8881 9.03581 19.1028 9.03151 19.3009 8.96283C19.5015 8.89397 19.6756 8.76415 19.7989 8.59152C19.9221 8.41888 19.9884 8.21206 19.9884 7.99994C19.9899 7.36828 20.1403 6.74588 20.4273 6.18323C20.7144 5.62059 21.1301 5.13356 21.6407 4.76166C22.1699 4.38379 22.7815 4.1376 23.4249 4.0435C24.0682 3.94941 24.7247 4.01014 25.3399 4.22064C26.1236 4.49859 26.8004 5.01543 27.2748 5.69835C27.7493 6.38127 27.9975 7.19584 27.9845 8.02728C27.9849 8.23683 28.0511 8.44096 28.1738 8.61084C28.2965 8.78071 28.4694 8.90775 28.6682 8.97402C28.867 9.04029 29.0816 9.04243 29.2817 8.98014C29.4818 8.91785 29.6572 8.79429 29.7833 8.62689C30.188 8.07923 30.7259 7.64397 31.3459 7.36233C31.9659 7.08069 32.6475 6.96201 33.3263 7.01752C34.348 7.13662 35.2888 7.63222 35.9648 8.40758C36.6409 9.18294 37.0037 10.1824 36.9825 11.2109V23.4003C36.9842 25.5535 36.3466 27.6588 35.1505 29.4492C34.0696 31.0715 33.3711 32.918 33.1075 34.8496C32.2266 34.1256 31.1227 33.7282 29.9825 33.7246C28.6564 33.7246 27.3847 34.2513 26.447 35.189C25.5093 36.1267 24.9825 37.3985 24.9825 38.7246V51.6953C24.9812 52.352 25.11 53.0026 25.3614 53.6093C25.6128 54.2161 25.9819 54.7671 26.4474 55.2304L34.9337 63.7167C35.0257 63.8134 35.1361 63.8907 35.2584 63.9441C35.3807 63.9974 35.5124 64.0258 35.6459 64.0274C35.7793 64.0291 35.9117 64.004 36.0353 63.9537C36.1589 63.9034 36.2712 63.8289 36.3656 63.7346C36.4599 63.6402 36.5344 63.5279 36.5847 63.4043C36.635 63.2807 36.6601 63.1483 36.6584 63.0149C36.6568 62.8814 36.6284 62.7497 36.5751 62.6274C36.5217 62.5051 36.4444 62.3947 36.3477 62.3027L27.8614 53.8163C27.5823 53.5382 27.3609 53.2076 27.2101 52.8436C27.0593 52.4796 26.9819 52.0893 26.9825 51.6953V38.7167C26.9825 37.9211 27.2986 37.158 27.8612 36.5954C28.4238 36.0328 29.1869 35.7167 29.9825 35.7167C30.7761 35.7167 31.5374 36.0312 32.0997 36.5913C32.662 37.1513 32.9794 37.9114 32.9825 38.705V49.0996C32.9817 49.2988 33.0405 49.4938 33.1513 49.6595C33.2621 49.8251 33.4199 49.9539 33.6044 50.0292C33.7889 50.1046 33.9917 50.1231 34.1868 50.0824C34.3819 50.0416 34.5603 49.9436 34.6993 49.8007L34.7188 49.7792C34.8276 49.6683 34.9083 49.5329 34.9542 49.3845C35 49.236 35.0098 49.0787 34.9825 48.9257V36.5996C34.9811 34.4464 35.6187 32.3413 36.8145 30.5507C37.8902 28.9435 38.5892 27.1142 38.8595 25.1992L40.1329 26.4726C40.6933 27.0366 41.0091 27.7986 41.0118 28.5937V46.7363C41.0118 47.0015 41.1172 47.2558 41.3048 47.4433L46.254 52.3945C46.4418 52.582 46.6963 52.6872 46.9617 52.687C47.2271 52.6869 47.4815 52.5813 47.669 52.3935C47.8565 52.2057 47.9618 51.9511 47.9616 51.6858C47.9614 51.4204 47.8558 51.166 47.6681 50.9785L43.0118 46.3222V28.5937C43.0135 27.9369 42.8848 27.2862 42.6334 26.6794C42.382 26.0726 42.0127 25.5217 41.547 25.0585L38.9884 22.4999V11.207C39.0017 9.7634 38.5088 8.36079 37.5953 7.24289C36.6819 6.12499 35.4056 5.36247 33.9884 5.08783V3.99994C33.9884 3.73472 33.883 3.48037 33.6955 3.29283C33.5079 3.1053 33.2536 2.99994 32.9884 2.99994C32.7232 2.99994 32.4688 3.1053 32.2813 3.29283C32.0937 3.48037 31.9884 3.73472 31.9884 3.99994V5.10541C31.1583 5.24007 30.3666 5.55037 29.6661 6.01557C29.3812 5.15293 28.8982 4.36902 28.2558 3.72664C27.6134 3.08425 26.8295 2.60126 25.9669 2.31635C25.6482 2.21644 25.3224 2.1407 24.9923 2.08978V0.999941C24.9923 0.866117 24.9655 0.733643 24.9135 0.610367C24.8614 0.487092 24.7851 0.375523 24.6891 0.282271C24.5931 0.189019 24.4794 0.115981 24.3547 0.067485C24.2299 0.0189886 24.0967 -0.00397965 23.963 -5.90025e-05ZM23.9903 7.99994C23.7251 7.99994 23.4708 8.1053 23.2832 8.29283C23.0957 8.48037 22.9903 8.73472 22.9903 8.99994C22.9903 9.26516 23.0957 9.51951 23.2832 9.70705C23.4708 9.89458 23.7251 9.99994 23.9903 9.99994C24.2555 9.99994 24.5099 9.89458 24.6974 9.70705C24.885 9.51951 24.9903 9.26516 24.9903 8.99994C24.9903 8.73472 24.885 8.48037 24.6974 8.29283C24.5099 8.1053 24.2555 7.99994 23.9903 7.99994ZM14.9903 10.9999C14.7251 10.9999 14.4708 11.1053 14.2832 11.2928C14.0957 11.4804 13.9903 11.7347 13.9903 11.9999C13.9903 12.1977 14.049 12.3911 14.1589 12.5555C14.2687 12.72 14.4249 12.8481 14.6076 12.9238C14.7904 12.9995 14.9914 13.0193 15.1854 12.9807C15.3794 12.9421 15.5576 12.8469 15.6974 12.707C15.8373 12.5672 15.9325 12.389 15.9711 12.195C16.0097 12.0011 15.9899 11.8 15.9142 11.6173C15.8385 11.4345 15.7103 11.2784 15.5459 11.1685C15.3814 11.0586 15.1881 10.9999 14.9903 10.9999ZM32.9903 10.9999C32.7251 10.9999 32.4708 11.1053 32.2832 11.2928C32.0957 11.4804 31.9903 11.7347 31.9903 11.9999C31.9903 12.2652 32.0957 12.5195 32.2832 12.707C32.4708 12.8946 32.7251 12.9999 32.9903 12.9999C33.2555 12.9999 33.5099 12.8946 33.6974 12.707C33.885 12.5195 33.9903 12.2652 33.9903 11.9999C33.9903 11.7347 33.885 11.4804 33.6974 11.2928C33.5099 11.1053 33.2555 10.9999 32.9903 10.9999ZM23.9884 12.9999C22.2651 13.0021 20.613 13.6876 19.3945 14.9061C18.176 16.1246 17.4905 17.7767 17.4884 19.4999C17.4884 20.7855 17.8696 22.0422 18.5838 23.1111C19.298 24.1801 20.3132 25.0132 21.5009 25.5052C22.6886 25.9971 23.9956 26.1258 25.2565 25.875C26.5173 25.6242 27.6755 25.0052 28.5846 24.0961C29.4936 23.1871 30.1127 22.0289 30.3635 20.768C30.6143 19.5072 30.4856 18.2002 29.9936 17.0125C29.5016 15.8248 28.6685 14.8096 27.5996 14.0954C26.5307 13.3812 25.2739 12.9999 23.9884 12.9999ZM23.9884 14.9999C24.8784 14.9999 25.7484 15.2639 26.4884 15.7583C27.2285 16.2528 27.8052 16.9556 28.1458 17.7779C28.4864 18.6001 28.5755 19.5049 28.4019 20.3778C28.2283 21.2508 27.7997 22.0526 27.1703 22.6819C26.541 23.3113 25.7392 23.7398 24.8663 23.9135C23.9934 24.0871 23.0886 23.998 22.2663 23.6574C21.444 23.3168 20.7412 22.74 20.2468 22C19.7523 21.26 19.4884 20.39 19.4884 19.4999C19.4884 18.3065 19.9625 17.1619 20.8064 16.318C21.6503 15.474 22.7949 14.9999 23.9884 14.9999Z" fill="#E5383B"/>
<circle cx="24" cy="9" r="1" fill="white"/>
<circle cx="15" cy="12" r="1" fill="white"/>
<circle cx="33" cy="12" r="1" fill="white"/>
<circle cx="24" cy="20" r="7" fill="white"/>
</svg>
