<svg width="49" height="49" viewBox="0 0 49 49" fill="none" xmlns="http://www.w3.org/2000/svg">
<path d="M21.5477 10.1399C20.0088 10.1399 18.5146 10.4418 17.1066 11.0374C15.7479 11.6121 14.5282 12.4342 13.4813 13.481C12.4345 14.5279 11.6123 15.7476 11.0376 17.1063C10.4421 18.5143 10.1401 20.0085 10.1401 21.5474C10.1401 22.9474 11.2751 24.0824 12.6751 24.0824C14.0752 24.0824 15.2101 22.9474 15.2101 21.5474C15.2101 18.0529 18.0532 15.2099 21.5477 15.2099C22.9477 15.2099 24.0827 14.0749 24.0827 12.6749C24.0827 11.2748 22.9477 10.1399 21.5477 10.1399Z" fill="white"/>
<path d="M47.4225 43.8375L38.4709 34.8859C38.8012 34.4674 39.1161 34.0372 39.4138 33.5966C40.1921 32.4446 40.8606 31.2128 41.4009 29.9354C42.5252 27.2773 43.0953 24.4552 43.0953 21.5474C43.0953 18.6396 42.5252 15.8175 41.4009 13.1594C40.8606 11.8821 40.1921 10.6503 39.4138 9.49827C38.6433 8.35784 37.7586 7.28551 36.7841 6.31108C35.8097 5.33664 34.7373 4.45191 33.5969 3.68144C32.4449 2.90316 31.2131 2.23458 29.9357 1.69434C27.2776 0.570063 24.4554 0 21.5476 0C18.6398 0 15.8177 0.570063 13.1596 1.69434C11.8822 2.2346 10.6504 2.90316 9.49839 3.68144C8.35795 4.45191 7.28561 5.33664 6.31118 6.31108C5.33674 7.28551 4.45199 8.35784 3.68152 9.49827C2.90322 10.6503 2.23464 11.8821 1.69437 13.1594C0.570063 15.8175 0 18.6397 0 21.5474C0 24.4552 0.570063 27.2774 1.69437 29.9355C2.23464 31.2128 2.90322 32.4446 3.68152 33.5966C4.45199 34.737 5.33672 35.8094 6.31118 36.7838C7.28563 37.7582 8.35795 38.643 9.49839 39.4134C10.6504 40.1917 11.8822 40.8603 13.1596 41.4005C15.8177 42.5248 18.6398 43.0949 21.5476 43.0949C24.4554 43.0949 27.2776 42.5248 29.9357 41.4005C31.213 40.8603 32.4448 40.1917 33.5969 39.4134C34.0373 39.1159 34.4674 38.8011 34.8858 38.4709L43.8375 47.4225C44.3325 47.9175 44.9812 48.165 45.63 48.165C46.2788 48.165 46.9275 47.9175 47.4225 47.4225C48.4125 46.4325 48.4125 44.8275 47.4225 43.8375ZM5.07 21.5474C5.07 12.4617 12.4618 5.07 21.5476 5.07C30.6334 5.07 38.0253 12.4617 38.0253 21.5474C38.0253 30.6331 30.6334 38.0249 21.5476 38.0249C12.4618 38.0249 5.07 30.6331 5.07 21.5474Z" fill="#E5383B"/>
</svg>
