<svg width="193" height="191" viewBox="0 0 193 191" fill="none" xmlns="http://www.w3.org/2000/svg">
<path d="M86.4442 102.283C85.5954 101.94 84.8719 101.361 84.3595 100.616C83.8471 99.8714 83.5674 98.9916 83.5535 98.0812C83.5397 97.1709 83.7923 96.2683 84.2814 95.4805C84.7704 94.6927 85.4754 94.0529 86.3127 93.637L100.087 85.9993C100.884 85.5095 101.8 85.2505 102.727 85.253C103.654 85.2554 104.554 85.5193 105.319 86.0133C106.083 86.5073 106.681 87.2106 107.042 88.0397C107.402 88.8689 107.51 89.789 107.351 90.691L105.044 102.77C104.889 103.517 104.569 104.226 104.107 104.847C103.645 105.467 103.054 105.985 102.373 106.362C101.693 106.739 100.94 106.967 100.169 107.03C99.3984 107.093 98.6277 106.989 97.9118 106.725L86.4442 102.283ZM44.0047 148.171C43.3876 147.615 42.8915 146.943 42.5446 146.192C42.1977 145.441 42.0069 144.626 41.983 143.793C41.9592 142.961 42.1029 142.127 42.4057 141.34C42.7086 140.552 43.1648 139.827 43.7482 139.205L45.4467 137.392C44.3497 135.79 43.298 134.148 42.3392 132.419L8.75129 71.8415C8.21103 70.8667 7.9481 69.761 7.98935 68.6373C8.03061 67.5137 8.37456 66.4124 8.98609 65.4458C9.59762 64.4793 10.4548 63.6822 11.4701 63.136C12.4854 62.5897 13.6225 62.3139 14.7651 62.3366L48.8069 62.9882C54.0104 55.8006 60.8568 49.8935 68.7725 45.762C76.4723 41.237 85.1107 38.5582 93.9652 37.9495L111.439 8.73419C112.025 7.75297 112.862 6.93468 113.863 6.36288C114.864 5.79109 115.994 5.48627 117.138 5.47958C118.282 5.47288 119.398 5.76454 120.373 6.32477C121.348 6.885 122.146 7.69372 122.687 8.66834L156.275 69.2456C157.234 70.9748 158.069 72.7365 158.847 74.5156L161.284 74.0353C162.975 73.701 164.713 74.0368 166.116 74.9687C167.518 75.9006 168.47 77.3524 168.762 79.0046C169.053 80.6569 168.662 82.3743 167.672 83.779C166.683 85.1837 165.177 86.1606 163.485 86.495L162.685 86.6505C164.014 93.2324 164.252 100.011 163.391 106.729L168.125 108C169.738 108.463 171.084 109.536 171.871 110.987C172.659 112.438 172.826 114.151 172.336 115.758C171.845 117.365 170.738 118.736 169.251 119.577C167.764 120.417 166.018 120.66 164.387 120.253L160.519 119.215C155.348 134.721 144.368 147.856 129.845 155.909C115.322 163.961 98.3649 166.316 82.4734 162.489L81.3051 166.319C80.7869 167.918 79.6556 169.271 78.155 170.086C76.6544 170.902 74.9044 171.115 73.282 170.68C71.6597 170.244 70.2947 169.195 69.4811 167.758C68.6675 166.322 68.4704 164.612 68.9323 162.998L70.3623 158.31C64.2084 155.482 58.5848 151.689 53.7059 147.076C49.9325 150.694 46.4112 150.321 44.0047 148.171ZM54.6492 127.566L71.822 109.239C73.0014 107.981 74.6278 107.222 76.3434 107.126C78.059 107.031 79.7232 107.609 80.97 108.731C82.2167 109.854 82.9439 111.43 82.9915 113.114C83.0392 114.797 82.4033 116.448 81.2239 117.706L62.5851 137.58C66.01 140.865 69.905 143.643 74.1543 145.832L82.1371 119.662C82.6553 118.063 83.7866 116.71 85.2872 115.894C86.7879 115.079 88.5378 114.866 90.1602 115.301C91.7825 115.737 93.1475 116.786 93.9611 118.222C94.7747 119.659 94.9718 121.368 94.5099 122.982L86.1993 150.227C98.8107 153.176 112.23 151.268 123.735 144.889C135.239 138.51 143.967 128.139 148.146 115.88L120.635 108.497C119.022 108.034 117.676 106.961 116.889 105.51C116.101 104.059 115.934 102.345 116.424 100.739C116.914 99.1319 118.022 97.7605 119.509 96.9197C120.996 96.079 122.742 95.8362 124.373 96.2436L150.799 103.336C151.193 98.5718 150.9 93.7965 149.928 89.1519L123.192 94.4218C121.5 94.7562 119.762 94.4204 118.36 93.4885C116.958 92.5566 116.006 91.1048 115.714 89.4525C115.422 87.8003 115.814 86.0829 116.804 84.6782C117.793 83.2735 119.299 82.2965 120.99 81.9622L145.632 77.105C145.354 76.6039 145.159 76.064 144.875 75.5519L116.686 24.7111L103.217 47.2342C102.638 48.2084 101.811 49.0229 100.821 49.5957C99.8316 50.1686 98.7131 50.4796 97.5784 50.4975C89.627 50.5076 81.7705 52.6807 74.8794 56.776C67.7481 60.4516 61.7369 65.9678 57.513 72.7123C56.8967 73.6653 56.0404 74.4492 55.0302 74.9853C54.02 75.5214 52.8915 75.7908 51.7582 75.7663L25.5372 75.2496L53.7328 126.101C54.0167 126.614 54.3542 127.074 54.6492 127.566Z" fill="#353535"/>
</svg>
