<svg width="176" height="184" viewBox="0 0 176 184" fill="none" xmlns="http://www.w3.org/2000/svg">
<path d="M107.219 15.2766C103.815 12.9937 100.045 11.2108 95.873 10.5577C91.7235 9.88857 87.0723 10.5253 82.8637 12.9823C80.7088 14.2239 78.9178 15.8175 77.5366 17.5795C75.1098 20.6779 73.9441 24.1694 73.4226 27.4918C72.6546 32.4865 73.2577 37.2758 73.9832 40.9106C74.182 41.8875 74.3893 42.7731 74.5908 43.5622L67.0467 47.9178L60.2999 51.813L52.7538 56.1698C51.0488 54.4922 48.5817 52.3087 45.5397 50.3084C42.6083 48.4038 39.1489 46.6472 35.1453 45.8913C33.1474 45.5178 31.0016 45.4085 28.7814 45.728C26.5646 46.0433 24.2868 46.7986 22.1363 48.043C17.9286 50.4451 15.0379 54.106 13.5115 58.0005C11.2097 63.8754 11.473 70.1959 12.7086 76.1767C13.9777 82.1651 16.3237 87.8426 18.9195 92.3489C22.8843 99.2161 38.3815 126.058 44.1483 136.047C46.3575 139.868 49.7428 144.248 54.2751 148.42C61.0654 154.656 70.4863 160.438 82.3136 162.403C94.126 164.388 108.243 162.329 123.499 153.488C133.683 147.614 141.024 140.709 146.01 133.4C153.51 122.427 155.618 110.74 155.055 100.615C154.483 90.4509 151.364 81.7743 148.071 76.0463C142.304 66.0579 126.807 39.2158 122.842 32.3487C119.468 26.5492 114.008 19.8804 107.219 15.2766ZM139.973 80.722C141.732 83.763 143.586 88.2194 144.74 93.4064C146.484 101.204 146.666 110.596 143.204 119.776C139.721 128.959 132.738 138.133 119.174 145.997C110.12 151.219 102.006 153.579 94.7455 154.136C83.8759 154.958 74.7234 151.71 67.4294 146.966C62.7165 143.903 58.8536 140.188 55.9946 136.698C59.2571 134.815 64.9455 131.531 72.7612 127.018C85.599 119.606 87.5587 103.235 82.226 93.9988C78.1243 86.8946 67.4951 68.4843 62.8014 60.3544L64.6244 59.3019L71.3711 55.4067L85.6178 47.1814L84.3492 43.7195C84.2983 43.6163 82.5209 38.5187 82.2798 33.0612C82.1445 30.342 82.4074 27.569 83.2081 25.3933C83.6071 24.2983 84.1193 23.3541 84.7537 22.5551C85.3969 21.7515 86.156 21.0724 87.189 20.4734C89.3919 19.2285 91.3985 18.9295 93.8299 19.2797C97.4361 19.7975 101.75 22.2602 105.544 25.7099C109.352 29.1218 112.672 33.4207 114.744 37.024C118.709 43.8916 134.206 70.7336 139.973 80.722Z" fill="#353535"/>
<path d="M100.479 115.175C94.5167 118.617 91.621 124.765 94.0083 128.899C96.3968 133.036 103.167 133.6 109.129 130.158C115.094 126.714 117.99 120.569 115.602 116.432C113.215 112.297 106.443 111.731 100.479 115.175Z" fill="#353535"/>
<path d="M110.949 84.9945C114.676 82.8425 116.084 78.303 114.093 74.8551C112.103 71.4072 107.467 70.3567 103.74 72.5086C100.013 74.6605 98.6049 79.2001 100.596 82.648C102.586 86.0958 107.221 87.1464 110.949 84.9945Z" fill="#353535"/>
<path d="M92.4902 30.1735C87.9941 32.7693 92.1373 42.0304 92.1373 42.0304L102.037 36.315C102.037 36.315 96.9863 27.5777 92.4902 30.1735Z" fill="#353535"/>
</svg>
