<svg width="36" height="36" viewBox="0 0 36 36" fill="none" xmlns="http://www.w3.org/2000/svg">
<path d="M5.14307 17.6976H12.8574V20.6472H5.14307V17.6976Z" fill="#E5383B"/>
<path d="M5.14307 11.7985H18.0002V14.7481H5.14307V11.7985Z" fill="#E5383B"/>
<path d="M5.14307 5.89917H18.0002V8.84878H5.14307V5.89917Z" fill="#E5383B"/>
<path d="M15.4286 32.4457H2.57143V2.94961H33.4286V17.6977H36V2.94961C36 2.16733 35.7291 1.41708 35.2468 0.863921C34.7646 0.310762 34.1106 0 33.4286 0H2.57143C1.88944 0 1.23539 0.310762 0.753154 0.863921C0.270917 1.41708 0 2.16733 0 2.94961V32.4457C0 33.228 0.270917 33.9782 0.753154 34.5314C1.23539 35.0846 1.88944 35.3953 2.57143 35.3953H15.4286V32.4457Z" fill="#E5383B"/>
<path d="M25.7141 31.841L22.3841 28.0213L20.5713 30.1008L25.7141 36L35.9999 24.2015L34.187 22.1221L25.7141 31.841Z" fill="#E5383B"/>
</svg>
