<svg width="58" height="72" viewBox="0 0 58 72" fill="none" xmlns="http://www.w3.org/2000/svg">
<path d="M32.2873 43.05C32.2873 41.0686 30.6812 39.4625 28.6998 39.4625C26.7184 39.4625 25.1123 41.0686 25.1123 43.05V50.225C25.1123 52.2064 26.7184 53.8125 28.6998 53.8125C30.6812 53.8125 32.2873 52.2064 32.2873 50.225V43.05Z" fill="#C004F3"/>
<path fill-rule="evenodd" clip-rule="evenodd" d="M10.7625 21.9568C4.72151 23.4342 0 28.5557 0 35.047V54.9164C0 64.4781 8.30668 71.75 17.9375 71.75H39.4625C49.0935 71.75 57.4 64.4781 57.4 54.9164V35.047C57.4 28.5557 52.6785 23.4342 46.6375 21.9568V17.9375C46.6375 8.03091 38.6065 0 28.7 0C18.7934 0 10.7625 8.03091 10.7625 17.9375V21.9568ZM39.4625 17.9375V21.525H17.9375V17.9375C17.9375 16.6796 18.1533 15.4721 18.5499 14.35C20.0274 10.1699 24.014 7.175 28.7 7.175C33.386 7.175 37.3728 10.1699 38.8501 14.35C39.2465 15.4721 39.4625 16.6796 39.4625 17.9375ZM7.175 35.047C7.175 31.8068 10.1116 28.7 14.35 28.7H43.05C47.2883 28.7 50.225 31.8068 50.225 35.047V54.9164C50.225 59.9859 45.6822 64.575 39.4625 64.575H17.9375C11.7177 64.575 7.175 59.9859 7.175 54.9164V35.047Z" fill="#C004F3"/>
</svg>
