<svg width="49" height="85" viewBox="0 0 49 85" fill="none" xmlns="http://www.w3.org/2000/svg">
<path d="M24.5 38C12.0736 38 2 48.0737 2 60.5C2 72.9263 12.0736 83 24.5 83C36.9263 83 47 72.9263 47 60.5C47 48.0737 36.9263 38 24.5 38ZM24.5 38V2V38ZM24.5 2L42.5 20L24.5 2ZM24.5 2L6.5 20L24.5 2Z" fill="#161A1D"/>
<path d="M24.5 38C12.0736 38 2 48.0737 2 60.5C2 72.9263 12.0736 83 24.5 83C36.9263 83 47 72.9263 47 60.5C47 48.0737 36.9263 38 24.5 38ZM24.5 38V2M24.5 2L42.5 20M24.5 2L6.5 20" stroke="#0047FF" stroke-width="3.75" stroke-linecap="round" stroke-linejoin="round"/>
</svg>
