<svg width="153" height="154" viewBox="0 0 153 154" fill="none" xmlns="http://www.w3.org/2000/svg">
<path d="M124.767 54.8256L105.376 76.131C102.25 73.2858 97.4092 73.5136 94.5639 76.6398C91.7187 79.7661 91.9465 84.6069 95.0728 87.4521C96.9201 89.1334 99.3658 89.7407 101.645 89.3121C101.432 91.6215 102.267 93.9993 104.114 95.6806C107.24 98.5258 112.081 98.298 114.926 95.1718C117.771 92.0455 117.544 87.2047 114.417 84.3595L133.808 63.054C136.934 65.8992 141.775 65.6714 144.62 62.5452C147.465 59.4189 147.237 54.5781 144.111 51.7329C142.264 50.0516 139.818 49.4443 137.539 49.8729C137.752 47.5635 136.917 45.1857 135.07 43.5044C131.944 40.6592 127.103 40.887 124.258 44.0133C121.412 47.1395 121.64 51.9803 124.767 54.8256Z" fill="#2E2E2E"/>
<path d="M147.324 56.9997C147.425 59.1428 146.71 61.324 145.155 63.0321C142.21 66.2681 137.291 66.6626 133.877 64.0534L115.419 84.3336C116.76 85.7797 117.54 87.6333 117.634 89.6257C117.739 91.8611 116.968 94.0032 115.461 95.6583C112.352 99.0749 107.043 99.3247 103.627 96.2153C101.889 94.6335 100.92 92.4504 100.888 90.1432C98.5802 90.3315 96.3236 89.5686 94.5856 87.9868C91.1694 84.8777 90.9196 79.5688 94.0287 76.1523C95.535 74.4972 97.5952 73.5279 99.8306 73.4227C101.823 73.3289 103.742 73.932 105.307 75.1306L123.764 54.8505C122.424 53.4047 121.644 51.5511 121.55 49.5583C121.445 47.323 122.216 45.1804 123.722 43.5257C126.831 40.1092 132.14 39.8593 135.557 42.9688C137.295 44.5502 138.266 46.7252 138.295 49.0409C140.603 48.8522 142.86 49.6151 144.598 51.1972C146.306 52.7525 147.223 54.8569 147.324 56.9997ZM113.694 84.3937C113.685 84.2022 113.753 84.0146 113.882 83.8727L133.272 62.5672C133.541 62.2716 133.999 62.2501 134.294 62.5191C137.12 65.0908 141.512 64.8841 144.084 62.0584C146.656 59.2323 146.449 54.8404 143.623 52.2687C142.001 50.7923 139.832 50.1786 137.672 50.5849C137.449 50.6265 137.219 50.5616 137.051 50.4087C136.883 50.2561 136.797 50.0334 136.817 49.8071C137.02 47.62 136.205 45.5169 134.582 44.0406C131.756 41.4685 127.364 41.6752 124.792 44.5013C123.547 45.8703 122.908 47.6425 122.995 49.4917C123.082 51.3407 123.884 53.0451 125.253 54.2914C125.549 54.5604 125.57 55.0184 125.301 55.3136L105.911 76.6191C105.642 76.9147 105.184 76.9362 104.889 76.6672C103.52 75.4213 101.748 74.783 99.8983 74.87C98.049 74.9571 96.3446 75.7589 95.0987 77.1279C92.5266 79.954 92.7337 84.3459 95.5594 86.9176C97.1816 88.3939 99.3508 89.0077 101.51 88.6014C101.734 88.5597 101.964 88.6246 102.131 88.7776C102.299 88.9302 102.385 89.1511 102.365 89.3792C102.163 91.5688 102.978 93.6697 104.6 95.1457C107.426 97.7178 111.818 97.5111 114.39 94.685C115.636 93.316 116.274 91.5438 116.187 89.6945C116.1 87.8456 115.298 86.1412 113.929 84.8949C113.788 84.7657 113.703 84.5853 113.694 84.3937Z" fill="#484848"/>
<path d="M30.5992 85.8876L18.4936 91.5846C17.6577 89.8083 15.5401 89.046 13.7638 89.8819C11.9875 90.7178 11.2252 92.8355 12.0611 94.6118C12.5551 95.6614 13.4966 96.3565 14.5507 96.5775C14.0492 97.5307 13.9849 98.6993 14.4787 99.7488C15.3146 101.525 17.4323 102.287 19.2085 101.452C20.9848 100.616 21.7472 98.4979 20.9112 96.7216L33.0167 91.0247C33.8527 92.801 35.9703 93.5633 37.7466 92.7273C39.5229 91.8914 40.2852 89.7738 39.4492 87.9975C38.9553 86.9478 38.0137 86.2527 36.9596 86.0317C37.4612 85.0786 37.5255 83.91 37.0317 82.8604C36.1957 81.0841 34.0781 80.3218 32.3018 81.1577C30.5255 81.9937 29.7632 84.1113 30.5992 85.8876Z" fill="#2E2E2E"/>
<path d="M39.8919 90.8283C39.5544 91.7659 38.8601 92.5748 37.8896 93.0315C36.0509 93.8968 33.8702 93.1921 32.8687 91.4659L21.3456 96.8887C21.6639 97.7474 21.6694 98.6814 21.3557 99.553C21.0036 100.531 20.292 101.313 19.3516 101.756C17.4105 102.669 15.0881 101.833 14.1745 99.8919C13.7098 98.9044 13.6819 97.7955 14.0782 96.7998C13.0545 96.4706 12.2217 95.7423 11.757 94.7548C10.8435 92.8138 11.6795 90.4914 13.6206 89.5777C14.561 89.1352 15.6173 89.0853 16.5951 89.4373C17.4667 89.7511 18.1829 90.3507 18.6417 91.1432L30.1646 85.7204C29.8462 84.8618 29.8408 83.9279 30.1546 83.0561C30.5066 82.0783 31.2183 81.296 32.1586 80.8536C34.0997 79.9399 36.4221 80.776 37.3357 82.7172C37.8005 83.7045 37.8309 84.8104 37.4319 85.8092C38.4557 86.1383 39.2884 86.8666 39.7532 87.8543C40.2099 88.8251 40.2293 89.891 39.8919 90.8283ZM20.5946 96.608C20.6248 96.5242 20.6871 96.4557 20.7678 96.4177L32.8733 90.7208C33.0412 90.6417 33.2414 90.7138 33.3204 90.8817C34.0762 92.4874 35.9973 93.1789 37.603 92.4234C39.2087 91.6677 39.9003 89.7465 39.1446 88.1408C38.7107 87.2191 37.8891 86.5704 36.8901 86.361C36.787 86.3392 36.6998 86.2705 36.655 86.1751C36.61 86.0798 36.6126 85.9689 36.6616 85.8754C37.1369 84.9728 37.1609 83.9257 36.727 83.0039C35.9713 81.3982 34.0501 80.7066 32.4445 81.4623C31.6666 81.8284 31.0779 82.4754 30.7867 83.2844C30.4955 84.0932 30.5368 84.967 30.9028 85.745C30.9818 85.9129 30.9097 86.1133 30.7418 86.1922L18.6363 91.8891C18.4683 91.9682 18.2682 91.8961 18.1891 91.7282C17.8231 90.9503 17.176 90.3616 16.3671 90.0704C15.5581 89.7792 14.6843 89.8204 13.9064 90.1865C12.3007 90.9422 11.6092 92.8635 12.3648 94.469C12.7986 95.3907 13.6203 96.0395 14.6191 96.2488C14.7224 96.2706 14.8095 96.3393 14.8543 96.4347C14.8992 96.53 14.8968 96.6401 14.8477 96.7344C14.372 97.6381 14.3486 98.6844 14.7823 99.6059C15.538 101.212 17.4592 101.903 19.0648 101.147C19.8426 100.781 20.4313 100.134 20.7226 99.3254C21.0137 98.5166 20.9725 97.6428 20.6065 96.8648C20.5688 96.7843 20.5644 96.6918 20.5946 96.608Z" fill="#484848"/>
<path d="M79.8098 73.0658L76.8094 64.753C78.0291 64.3127 78.6611 62.967 78.2208 61.7472C77.7805 60.5274 76.4348 59.8955 75.215 60.3357C74.4942 60.5959 73.979 61.1723 73.7687 61.8519C73.1727 61.4633 72.4081 61.3489 71.6874 61.609C70.4676 62.0492 69.8357 63.395 70.2759 64.6148C70.7162 65.8345 72.0619 66.4665 73.2817 66.0262L76.2821 74.3391C75.0623 74.7793 74.4304 76.1251 74.8707 77.3448C75.311 78.5646 76.6567 79.1965 77.8765 78.7563C78.5973 78.4961 79.1125 77.9198 79.3228 77.2401C79.9188 77.6287 80.6834 77.7431 81.4041 77.483C82.6239 77.0428 83.2558 75.697 82.8155 74.4773C82.3753 73.2575 81.0296 72.6255 79.8098 73.0658Z" fill="#2E2E2E"/>
<path d="M75.9874 78.8729C75.3916 78.5931 74.9024 78.0866 74.6619 77.4201C74.2062 76.1575 74.8041 74.7668 76.0011 74.2145L73.1451 66.3016C72.5607 66.458 71.9461 66.4041 71.3922 66.144C70.7708 65.8522 70.3003 65.3359 70.0672 64.6901C69.586 63.3572 70.2791 61.8813 71.6121 61.4002C72.2902 61.1554 73.0213 61.2054 73.6517 61.5274C73.9313 60.8744 74.4616 60.3717 75.1398 60.1269C76.4727 59.6458 77.9485 60.3388 78.4297 61.6718C78.6628 62.3176 78.6305 63.0153 78.3387 63.6367C78.0786 64.1906 77.64 64.6247 77.0905 64.8776L79.9466 72.7904C80.5309 72.6339 81.1455 72.6879 81.6995 72.948C82.3209 73.2398 82.7915 73.7561 83.0245 74.4019C83.5057 75.7348 82.8126 77.2107 81.4796 77.6918C80.8016 77.9366 80.0724 77.8884 79.4401 77.5644C79.1605 78.2175 78.6302 78.7203 77.9519 78.9651C77.2853 79.2055 76.5831 79.1526 75.9874 78.8729ZM73.376 65.825C73.4293 65.85 73.4705 65.8952 73.4905 65.9506L76.4909 74.2635C76.5325 74.3788 76.4728 74.506 76.3575 74.5477C75.2549 74.9457 74.6816 76.1665 75.0795 77.2692C75.4775 78.3718 76.6984 78.9452 77.801 78.5471C78.434 78.3186 78.9113 77.8182 79.1106 77.1741C79.1313 77.1077 79.1818 77.0545 79.2474 77.0309C79.3128 77.0072 79.3856 77.0158 79.444 77.0538C80.0083 77.422 80.6956 77.5024 81.3285 77.2738C82.4312 76.8758 83.0045 75.6549 82.6065 74.5523C82.4137 74.0182 82.0245 73.5911 81.5104 73.3497C80.9964 73.1083 80.4191 73.0816 79.8849 73.2743C79.7696 73.3159 79.6422 73.2562 79.6007 73.1409L76.6003 64.828C76.5587 64.7127 76.6184 64.5855 76.7337 64.5438C77.2679 64.351 77.695 63.9618 77.9364 63.4477C78.1778 62.9336 78.2045 62.3564 78.0117 61.8222C77.6137 60.7196 76.3928 60.1463 75.2902 60.5443C74.6573 60.7727 74.18 61.2732 73.9807 61.9172C73.96 61.9837 73.9094 62.0368 73.8439 62.0604C73.7785 62.0841 73.7062 62.0757 73.6472 62.0375C73.0822 61.669 72.3955 61.5891 71.7628 61.8175C70.6601 62.2155 70.0868 63.4364 70.4848 64.539C70.6776 65.0731 71.0668 65.5002 71.5809 65.7416C72.0949 65.983 72.6722 66.0097 73.2064 65.817C73.2617 65.7972 73.3228 65.8 73.376 65.825Z" fill="#484848"/>
<path d="M134.931 121.172L132.109 113.352C133.256 112.938 133.851 111.672 133.437 110.525C133.022 109.377 131.757 108.783 130.609 109.197C129.931 109.442 129.447 109.984 129.249 110.623C128.688 110.258 127.969 110.15 127.291 110.395C126.143 110.809 125.549 112.075 125.963 113.222C126.377 114.37 127.643 114.964 128.791 114.55L131.613 122.37C130.466 122.784 129.871 124.05 130.285 125.197C130.699 126.345 131.965 126.939 133.113 126.525C133.791 126.28 134.275 125.738 134.473 125.099C135.034 125.464 135.753 125.572 136.431 125.327C137.579 124.913 138.173 123.647 137.759 122.5C137.345 121.352 136.079 120.758 134.931 121.172Z" fill="#2E2E2E"/>
<path d="M131.336 126.635C130.775 126.371 130.315 125.895 130.089 125.268C129.66 124.08 130.223 122.772 131.349 122.253L128.662 114.809C128.112 114.956 127.534 114.905 127.013 114.661C126.429 114.386 125.986 113.901 125.767 113.293C125.314 112.039 125.966 110.651 127.22 110.198C127.858 109.968 128.546 110.015 129.139 110.318C129.402 109.704 129.901 109.231 130.538 109.001C131.792 108.548 133.181 109.2 133.633 110.454C133.852 111.061 133.822 111.718 133.548 112.302C133.303 112.823 132.89 113.232 132.373 113.47L135.06 120.913C135.61 120.766 136.188 120.817 136.709 121.061C137.294 121.336 137.736 121.821 137.955 122.429C138.408 123.683 137.756 125.071 136.502 125.524C135.864 125.754 135.178 125.709 134.584 125.404C134.321 126.018 133.822 126.491 133.184 126.721C132.557 126.948 131.896 126.898 131.336 126.635ZM128.879 114.361C128.929 114.384 128.968 114.427 128.987 114.479L131.809 122.299C131.849 122.407 131.792 122.527 131.684 122.566C130.647 122.94 130.107 124.089 130.482 125.126C130.856 126.163 132.005 126.703 133.042 126.328C133.637 126.113 134.086 125.643 134.274 125.037C134.293 124.974 134.341 124.924 134.402 124.902C134.464 124.88 134.532 124.888 134.587 124.923C135.118 125.27 135.765 125.345 136.36 125.13C137.397 124.756 137.937 123.608 137.562 122.57C137.381 122.068 137.015 121.666 136.531 121.439C136.048 121.212 135.505 121.187 135.002 121.368C134.894 121.407 134.774 121.351 134.735 121.243L131.912 113.423C131.873 113.314 131.929 113.195 132.038 113.156C132.54 112.974 132.942 112.608 133.169 112.125C133.396 111.641 133.421 111.098 133.24 110.595C132.866 109.558 131.717 109.019 130.68 109.393C130.085 109.608 129.636 110.079 129.448 110.685C129.429 110.747 129.381 110.797 129.319 110.819C129.258 110.842 129.19 110.834 129.134 110.798C128.603 110.451 127.957 110.376 127.362 110.591C126.325 110.965 125.785 112.114 126.16 113.151C126.341 113.654 126.707 114.055 127.191 114.282C127.674 114.509 128.217 114.535 128.72 114.353C128.772 114.335 128.829 114.337 128.879 114.361Z" fill="#484848"/>
<path d="M45.3206 31.7519L32.6168 24.1465C33.7328 22.2824 33.1264 19.8666 31.2623 18.7506C29.3982 17.6346 26.9824 18.2411 25.8664 20.1051C25.207 21.2067 25.1494 22.5005 25.5968 23.6053C24.4117 23.7327 23.2985 24.3947 22.639 25.4961C21.523 27.3602 22.1295 29.7759 23.9935 30.8919C25.8576 32.0079 28.2734 31.4015 29.3894 29.5374L42.0931 37.1428C40.9771 39.0069 41.5836 41.4227 43.4477 42.5387C45.3117 43.6547 47.7275 43.0482 48.8435 41.1841C49.503 40.0826 49.5605 38.7888 49.1131 37.684C50.2982 37.5566 51.4115 36.8945 52.071 35.7932C53.1869 33.9291 52.5805 31.5133 50.7164 30.3973C48.8523 29.2814 46.4365 29.8878 45.3206 31.7519Z" fill="#2E2E2E"/>
<path d="M46.5162 43.3377C45.4466 43.6062 44.2751 43.4675 43.2566 42.8578C41.3271 41.7026 40.6287 39.2644 41.5965 37.2792L29.5041 30.0396C28.9117 30.8619 28.057 31.4433 27.0627 31.6929C25.9472 31.973 24.7895 31.8018 23.8027 31.211C21.7655 29.9916 21.1004 27.3422 22.32 25.305C22.9405 24.2687 23.9419 23.5588 25.1012 23.3084C24.7719 22.1648 24.9271 20.9503 25.5475 19.914C26.767 17.8771 29.4164 17.212 31.4535 18.4314C32.4404 19.0223 33.138 19.9618 33.418 21.0774C33.6676 22.0717 33.5587 23.0996 33.1138 24.0102L45.2061 31.2496C45.7984 30.4273 46.653 29.8459 47.6475 29.5963C48.7631 29.3162 49.9209 29.4873 50.9076 30.0782C52.9447 31.2976 53.6098 33.947 52.3902 35.9842C51.77 37.0205 50.7728 37.7308 49.609 37.9806C49.9385 39.1242 49.7833 40.3386 49.1628 41.3751C48.5527 42.3937 47.5855 43.0693 46.5162 43.3377ZM29.2986 29.1765C29.3942 29.1525 29.4956 29.1675 29.5802 29.2181L42.2839 36.8236C42.4602 36.9291 42.5175 37.1575 42.412 37.3337C41.4033 39.0188 41.9535 41.2104 43.6384 42.2193C45.3235 43.2281 47.5153 42.6779 48.5239 40.9928C49.103 40.0254 49.1919 38.8703 48.7678 37.8234C48.7242 37.7152 48.7335 37.5927 48.7935 37.4927C48.8534 37.3925 48.9568 37.3265 49.0729 37.3138C50.1954 37.1935 51.1722 36.5694 51.7512 35.6019C52.76 33.9168 52.2098 31.7251 50.5248 30.7164C49.7085 30.2277 48.7508 30.0862 47.8279 30.3178C46.9052 30.5495 46.1279 31.1266 45.6391 31.9429C45.5335 32.1191 45.305 32.1765 45.1289 32.0709L32.4252 24.4655C32.2489 24.36 32.1916 24.1316 32.2971 23.9554C32.7858 23.1391 32.9274 22.1814 32.6957 21.2585C32.464 20.3356 31.8869 19.5583 31.0706 19.0696C29.3855 18.0608 27.1938 18.6112 26.1851 20.2961C25.606 21.2633 25.5171 22.4186 25.9412 23.4653C25.9849 23.5737 25.9755 23.696 25.9155 23.7961C25.8557 23.8962 25.7531 23.9619 25.6361 23.9749C24.5124 24.0956 23.5367 24.7198 22.9578 25.6868C21.949 27.3719 22.4992 29.5637 24.1842 30.5723C25.0005 31.061 25.9582 31.2026 26.8811 30.9709C27.8038 30.7393 28.5811 30.1622 29.07 29.3458C29.1207 29.2616 29.203 29.2005 29.2986 29.1765Z" fill="#484848"/>
<path d="M93.3859 44.5017L100.003 35.481C101.327 36.452 103.187 36.1662 104.158 34.8425C105.129 33.5189 104.844 31.6587 103.52 30.6877C102.738 30.1139 101.768 29.9793 100.906 30.238C100.893 29.3374 100.474 28.4533 99.6919 27.8794C98.3682 26.9084 96.508 27.1943 95.537 28.5179C94.566 29.8416 94.8518 31.7018 96.1755 32.6728L89.5579 41.6935C88.2342 40.7225 86.374 41.0083 85.403 42.332C84.432 43.6556 84.7178 45.5158 86.0415 46.4868C86.8237 47.0606 87.793 47.1952 88.6557 46.9365C88.6679 47.8371 89.0875 48.7212 89.8695 49.2951C91.1931 50.2661 93.0533 49.9802 94.0244 48.6566C94.9954 47.3329 94.7096 45.4728 93.3859 44.5017Z" fill="#2E2E2E"/>
<path d="M84.5851 44.584C84.4585 43.7604 84.6455 42.8888 85.176 42.1656C86.1812 40.7955 88.0647 40.4421 89.49 41.3102L95.7892 32.7236C95.2123 32.2199 94.8352 31.5359 94.7176 30.7703C94.5856 29.9113 94.796 29.0525 95.3101 28.3517C96.3711 26.9052 98.4112 26.5917 99.8578 27.6529C100.594 28.1927 101.057 28.9962 101.164 29.886C102.047 29.7189 102.95 29.9213 103.686 30.4611C105.132 31.5222 105.446 33.5623 104.385 35.0088C103.871 35.7096 103.114 36.1681 102.256 36.3001C101.49 36.4178 100.724 36.2633 100.071 35.8644L93.7715 44.451C94.3483 44.9545 94.7254 45.6385 94.8431 46.4043C94.9751 47.2632 94.7647 48.1222 94.2506 48.8229C93.1896 50.2694 91.1495 50.5829 89.7029 49.5217C88.9671 48.982 88.503 48.1817 88.3972 47.2886C87.5136 47.4558 86.6109 47.2534 85.8749 46.7135C85.1517 46.1826 84.7116 45.4074 84.5851 44.584ZM96.453 32.6298C96.4643 32.7034 96.4459 32.7786 96.4018 32.8387L89.7842 41.8594C89.6924 41.9846 89.5166 42.0116 89.3914 41.9198C88.1949 41.0421 86.5073 41.3015 85.6295 42.4979C84.7517 43.6945 85.011 45.3822 86.2076 46.2598C86.8945 46.7637 87.7572 46.912 88.5748 46.6668C88.6592 46.6416 88.7507 46.6573 88.8218 46.7095C88.8929 46.7616 88.9353 46.844 88.9366 46.9323C88.948 47.7852 89.3486 48.5641 90.0356 49.0679C91.2321 49.9457 92.9198 49.6864 93.7975 48.4898C94.2227 47.9102 94.3967 47.1997 94.2875 46.4891C94.1784 45.7786 93.799 45.1531 93.2194 44.7278C93.0942 44.636 93.0672 44.46 93.159 44.3349L99.7766 35.3142C99.8684 35.1891 100.044 35.1621 100.169 35.2539C100.749 35.6791 101.46 35.8531 102.17 35.7439C102.881 35.6347 103.506 35.2554 103.931 34.6758C104.809 33.4792 104.55 31.7915 103.353 30.9138C102.667 30.41 101.804 30.2616 100.986 30.5068C100.902 30.532 100.81 30.5164 100.739 30.4642C100.668 30.4121 100.626 30.3303 100.624 30.2414C100.613 29.3875 100.212 28.6095 99.5255 28.1057C98.329 27.2279 96.6413 27.4873 95.7636 28.6838C95.3384 29.2634 95.1644 29.9739 95.2736 30.6846C95.3827 31.3951 95.7621 32.0205 96.3417 32.4459C96.4015 32.49 96.4417 32.5562 96.453 32.6298Z" fill="#484848"/>
<path d="M119.784 111.119L118.129 103.909C118.015 103.415 117.523 103.107 117.029 103.22C116.536 103.333 116.227 103.825 116.341 104.319L117.996 111.529C118.575 114.051 116.994 116.574 114.472 117.153C113.262 117.431 112.011 117.203 110.95 116.519C109.889 115.832 109.149 114.774 108.866 113.541L106.693 104.078C105.888 100.57 102.387 98.3695 98.8895 99.1724C95.3818 99.9776 93.1831 103.486 93.9883 106.994L94.7672 110.387C93.4925 108.801 91.9479 107.422 90.1728 106.31C86.0021 103.696 81.0632 102.863 76.2661 103.965C66.3632 106.238 60.1562 116.144 62.4294 126.047C63.5306 130.844 66.434 134.925 70.6047 137.538C74.7755 140.152 79.7143 140.984 84.5114 139.883C89.3085 138.782 93.3897 135.879 96.0031 131.708C98.6165 127.537 99.4493 122.598 98.3481 117.801C98.3223 117.689 98.2944 117.576 98.2665 117.464L95.7763 106.584C95.1975 104.062 96.7781 101.539 99.2999 100.96C101.812 100.384 104.327 101.966 104.906 104.488L107.078 113.951C107.468 115.652 108.49 117.111 109.954 118.059C111.434 119.014 113.185 119.33 114.883 118.941C118.39 118.136 120.589 114.627 119.784 111.119ZM95.4452 114.943C93.4663 113.925 91.3865 113.177 89.2504 112.711C89.2255 112.67 89.1981 112.629 89.1659 112.591C86.4577 109.374 83.0498 106.916 79.191 105.372C82.6903 105.112 86.1696 105.966 89.1987 107.864C91.9641 109.597 94.1096 112.047 95.4452 114.943ZM73.805 114.195C71.9229 112.932 69.8841 111.929 67.7296 111.208C68.3671 110.453 69.0735 109.754 69.8411 109.12C69.8574 109.124 69.8735 109.129 69.8901 109.133C73.2181 109.889 75.8515 111.031 78.233 112.767C78.2012 112.774 78.1693 112.78 78.1375 112.788C76.6385 113.132 75.1908 113.604 73.805 114.195ZM80.6564 112.339C80.6547 112.337 80.6532 112.336 80.6515 112.334C78.0665 110.147 75.2917 108.694 71.8053 107.724C72.9583 107.026 74.2116 106.461 75.5498 106.054C79.4682 107.167 83.3864 109.373 86.346 112.254C84.466 112.07 82.5597 112.096 80.6564 112.339ZM66.5651 112.762C68.4261 113.333 70.1992 114.125 71.8542 115.126C68.7353 116.782 65.9965 119.074 63.795 121.893C63.8009 118.591 64.8007 115.426 66.5651 112.762ZM64.0334 124.714C67.3917 119.551 72.5299 115.957 78.548 114.576C84.6118 113.184 91.1002 114.359 96.407 117.602C96.4613 117.804 96.5131 118.007 96.5601 118.212C96.76 119.083 96.8879 119.959 96.9474 120.834C85.9748 115.091 72.428 118.106 64.9283 127.954C64.6383 127.206 64.4001 126.432 64.2173 125.636C64.1467 125.329 64.0861 125.021 64.0334 124.714ZM96.5179 125.85C91.4293 123.517 86.069 122.837 80.9572 123.887C75.6301 124.982 70.9741 127.892 67.4473 132.319C66.8288 131.55 66.2803 130.728 65.8089 129.859C72.8194 119.824 86.348 116.814 96.9568 122.932C96.8982 123.917 96.752 124.893 96.5179 125.85ZM89.9012 135.528C90.345 132.19 90.1196 128.785 89.244 125.543C90.5617 125.748 91.8839 126.068 93.1991 126.508C93.4161 128.553 93.3619 130.62 93.0396 132.663C92.1152 133.757 91.0609 134.717 89.9012 135.528ZM95.1591 129.483C95.174 128.731 95.1558 127.98 95.1038 127.231C95.3954 127.355 95.6862 127.485 95.9764 127.621C95.7436 128.254 95.471 128.876 95.1591 129.483ZM82.886 131.185C83.3053 133.522 83.3689 135.919 83.0668 138.298C79.5711 138.875 76.0352 138.326 72.888 136.724C75.5312 133.474 79.1866 131.445 82.886 131.185ZM71.2844 135.794C70.3434 135.177 69.4769 134.476 68.6935 133.702C71.9753 129.481 76.3755 126.78 81.2121 125.747C81.7377 126.926 82.1629 128.14 82.4867 129.376C78.2919 129.757 74.1948 132.102 71.2844 135.794ZM84.9611 137.874C85.3878 133.635 84.7421 129.366 83.0761 125.434C84.453 125.265 85.8567 125.227 87.273 125.323C88.3937 129.012 88.5921 132.957 87.84 136.755C86.9249 137.213 85.9624 137.588 84.9611 137.874Z" fill="white" fill-opacity="0.1"/>
<path d="M23.5164 61.7253L22.7503 66.3199C22.6978 66.6345 22.9104 66.932 23.225 66.9845C23.5396 67.037 23.8371 66.8245 23.8895 66.5099L24.6556 61.9154C24.9236 60.3084 26.4489 59.2191 28.0559 59.487C28.8267 59.6155 29.501 60.0481 29.9539 60.701C30.4069 61.3553 30.5842 62.1486 30.4531 62.9348L29.4477 68.9646C29.0749 71.1997 30.5851 73.3205 32.814 73.6922C35.0491 74.0649 37.1707 72.5497 37.5434 70.3146L37.9039 68.1526C38.2655 69.3817 38.8339 70.555 39.6004 71.6284C41.4014 74.1502 44.0768 75.8198 47.1336 76.3295C53.4437 77.3817 59.4334 73.104 60.4856 66.7939C60.9953 63.7371 60.2841 60.6649 58.4831 58.143C56.682 55.6211 54.0067 53.9515 50.95 53.4418C47.8932 52.9321 44.8209 53.6433 42.299 55.4443C39.7771 57.2454 38.1076 59.9207 37.5979 62.9774C37.5859 63.0493 37.5752 63.1212 37.5646 63.1931L36.4041 70.1247C36.1361 71.7316 34.6108 72.8209 33.0039 72.553C31.4031 72.2861 30.3189 70.7616 30.5869 69.1546L31.5923 63.1248C31.7731 62.0406 31.5285 60.9463 30.9034 60.0436C30.2713 59.1322 29.3273 58.5281 28.2458 58.3478C26.0108 57.975 23.8891 59.4902 23.5164 61.7253ZM38.6021 65.3379C39.5099 66.4052 40.5414 67.3391 41.6731 68.1228C41.6776 68.153 41.6838 68.1832 41.6934 68.2132C42.4981 70.7359 43.8924 72.9842 45.7686 74.8083C43.6689 74.1206 41.8484 72.7887 40.5403 70.9571C39.3462 69.2849 38.685 67.344 38.6021 65.3379ZM51.0203 70.9645C51.813 72.151 52.7594 73.2238 53.8406 74.1603C53.2885 74.4469 52.7095 74.6846 52.1104 74.8698C52.102 74.8632 52.0938 74.8565 52.0851 74.8503C50.329 73.6119 49.07 72.3152 48.1001 70.7334C48.1203 70.7369 48.1404 70.7409 48.1606 70.7443C49.1158 70.9035 50.0719 70.9757 51.0203 70.9645ZM46.5866 70.4013C46.5873 70.4026 46.5877 70.4039 46.5884 70.4051C47.5684 72.2986 48.8353 73.8099 50.6323 75.2108C49.7936 75.3406 48.9283 75.3691 48.0517 75.285C46.0377 73.6971 44.286 71.4728 43.2543 69.0856C44.3044 69.644 45.4203 70.0861 46.5866 70.4013ZM54.8914 73.535C53.9447 72.7567 53.1027 71.87 52.3794 70.8903C54.5921 70.6747 56.7365 69.997 58.6942 68.8845C57.8987 70.805 56.5574 72.4077 54.8914 73.535ZM59.2321 67.185C56.0387 69.3847 52.1854 70.2444 48.3506 69.6049C44.4867 68.9606 40.9914 66.7201 38.6802 63.5589C38.697 63.4284 38.7155 63.2979 38.7373 63.1674C38.8298 62.6124 38.9656 62.0717 39.1408 61.5482C44.1508 67.5231 52.7601 69.018 59.4885 65.0839C59.4779 65.5889 59.4309 66.0966 59.3463 66.6039C59.3136 66.7999 59.2751 66.9934 59.2321 67.185ZM40.5942 58.7308C42.9968 61.3098 45.954 62.9916 49.1818 63.6064C52.5454 64.2472 55.954 63.6699 59.0691 61.9387C59.2448 62.5346 59.3668 63.1449 59.4327 63.764C52.9445 67.9236 44.3468 66.4308 39.6385 60.3247C39.9089 59.7653 40.2282 59.232 40.5942 58.7308ZM46.7676 54.6843C45.7085 56.5209 45.023 58.557 44.7549 60.6547C44.0369 60.2195 43.3442 59.7155 42.684 59.1441C43.0482 57.9016 43.5757 56.7111 44.2533 55.5993C45.0538 55.1843 45.898 54.878 46.7676 54.6843ZM42.2566 56.9422C42.0677 57.376 41.898 57.8178 41.7485 58.2665C41.6085 58.1244 41.4706 57.9785 41.3343 57.8297C41.6216 57.517 41.9294 57.2207 42.2566 56.9422ZM49.8095 58.8956C50.1261 57.4342 50.664 56.0239 51.4106 54.7113C53.5839 55.2142 55.5107 56.3818 56.9586 58.0692C54.6403 59.327 52.0254 59.6317 49.8095 58.8956ZM57.6691 58.9951C58.0689 59.58 58.4052 60.1959 58.6753 60.8349C55.7525 62.5044 52.543 63.0213 49.4795 62.4625C49.4565 61.65 49.5 60.8416 49.6081 60.0442C52.1414 60.8289 55.089 60.4466 57.6691 58.9951ZM50.2061 54.5039C48.941 56.8688 48.2928 59.5089 48.3194 62.1975C47.4773 61.9658 46.6509 61.6513 45.8495 61.2555C46.0819 58.8394 46.9128 56.4953 48.2618 54.4646C48.9043 54.4176 49.5546 54.4301 50.2061 54.5039Z" fill="white" fill-opacity="0.1"/>
<path d="M61.7816 78.201L58.4982 78.5621C58.2734 78.5868 58.1112 78.7891 58.1359 79.014C58.1606 79.2388 58.3629 79.401 58.5877 79.3762L61.871 79.0151C63.0194 78.8888 64.0564 79.7203 64.1827 80.8686C64.2433 81.4195 64.0777 81.9629 63.7193 82.3976C63.3599 82.8327 62.8525 83.1064 62.2907 83.1681L57.9818 83.6421C56.3845 83.8177 55.2276 85.2565 55.4028 86.8493C55.5784 88.4465 57.0208 89.6031 58.6181 89.4274L60.163 89.2575C59.3937 89.7407 58.7022 90.3544 58.1171 91.0841C56.7424 92.7986 56.1177 94.9458 56.358 97.1302C56.8539 101.639 60.926 104.905 65.4352 104.409C67.6196 104.168 69.5797 103.092 70.9544 101.377C72.3291 99.6628 72.9539 97.5156 72.7136 95.3312C72.4734 93.1469 71.3969 91.1868 69.6824 89.8121C67.9679 88.4374 65.8207 87.8126 63.6363 88.0529C63.585 88.0585 63.5338 88.065 63.4827 88.0716L58.5285 88.6133C57.3801 88.7395 56.3432 87.9081 56.2168 86.7597C56.091 85.6158 56.9229 84.5825 58.0713 84.4562L62.3802 83.9822C63.155 83.897 63.8548 83.5195 64.3507 82.9192C64.8511 82.3124 65.0818 81.5519 64.9968 80.7791C64.8212 79.1818 63.3788 78.0253 61.7816 78.201ZM62.2184 89.1924C61.6646 90.0174 61.2257 90.9011 60.9085 91.8243C60.8888 91.8332 60.8694 91.8432 60.8508 91.8555C59.2838 92.8901 58.0175 94.2744 57.1336 95.9059C57.1989 94.3405 57.7577 92.8417 58.7562 91.5965C59.6677 90.4597 60.8652 89.635 62.2184 89.1924ZM60.7675 98.7507C60.1102 99.5201 59.5601 100.372 59.1289 101.291C58.8271 100.969 58.5535 100.619 58.3118 100.246C58.3146 100.239 58.3177 100.232 58.3202 100.225C58.8276 98.7883 59.4704 97.6795 60.3633 96.7131C60.3649 96.7276 60.366 96.7421 60.3676 96.7566C60.4427 97.4391 60.5774 98.1056 60.7675 98.7507ZM60.2988 95.6163C60.2981 95.617 60.2973 95.6175 60.2966 95.6182C59.1928 96.6515 58.405 97.8069 57.7946 99.3029C57.5447 98.7555 57.3587 98.1704 57.2475 97.5559C57.9437 95.8758 59.1249 94.2522 60.5557 93.0887C60.3766 93.9129 60.2896 94.7596 60.2988 95.6163ZM59.7579 101.887C60.1069 101.092 60.5502 100.346 61.0796 99.6641C61.6526 101.133 62.5277 102.466 63.6637 103.588C62.1998 103.415 60.8479 102.808 59.7579 101.887ZM64.9271 103.628C62.8113 101.872 61.4832 99.4074 61.1818 96.667C60.8781 93.9058 61.7348 91.0891 63.4477 88.9034C63.54 88.8898 63.6326 88.8773 63.7259 88.867C64.1225 88.8234 64.5177 88.812 64.9086 88.8309C61.7946 93.4 62.4308 99.5637 66.4105 103.399C66.0638 103.489 65.7082 103.555 65.3457 103.594C65.2057 103.61 65.0661 103.621 64.9271 103.628ZM67.1112 89.2808C65.8133 91.4169 65.2344 93.7588 65.4358 96.0802C65.6457 98.4992 66.6955 100.715 68.4765 102.508C68.1036 102.742 67.7105 102.943 67.3006 103.107C63.2132 99.479 62.5778 93.3236 65.8395 88.9352C66.2734 89.0122 66.6988 89.1275 67.1112 89.2808ZM71.0609 92.7157C69.6036 92.3463 68.082 92.2701 66.5987 92.4907C66.7576 91.917 66.9683 91.3472 67.2313 90.7867C68.1494 90.7962 69.0634 90.9272 69.9527 91.1757C70.3899 91.6422 70.7613 92.1595 71.0609 92.7157ZM68.6519 90.0713C68.3195 90.0258 67.9853 89.995 67.6503 89.9793C67.7203 89.8564 67.7934 89.7342 67.8687 89.6126C68.1374 89.7485 68.3989 89.9016 68.6519 90.0713ZM68.7719 95.6022C69.8302 95.5371 70.8963 95.6329 71.9359 95.8899C72.0108 97.47 71.5846 99.0097 70.7115 100.323C69.4069 98.9824 68.6958 97.2563 68.7719 95.6022ZM70.2162 100.986C69.8939 101.371 69.5382 101.719 69.1541 102.026C67.4522 100.353 66.4819 98.2617 66.2739 96.0633C66.824 95.8912 67.3842 95.7654 67.9492 95.6857C67.901 97.5657 68.7291 99.504 70.2162 100.986ZM71.8456 95.0279C69.9881 94.6194 68.0614 94.685 66.2315 95.2205C66.2276 94.6011 66.2833 93.9766 66.3993 93.3535C68.0931 93.0472 69.8528 93.1633 71.4984 93.6933C71.654 94.1228 71.7707 94.569 71.8456 95.0279Z" fill="white" fill-opacity="0.1"/>
<path d="M79.5303 30.8851L77.8729 28.5805C77.7595 28.4228 77.5395 28.3868 77.3817 28.5003C77.2239 28.6137 77.188 28.8337 77.3015 28.9915L78.9588 31.296C79.5385 32.102 79.3543 33.2293 78.5483 33.809C78.1616 34.087 77.685 34.1927 77.2083 34.1081C76.7308 34.023 76.3117 33.7589 76.0281 33.3646L73.8531 30.3401C73.0469 29.219 71.4813 28.961 70.3634 29.765C69.2423 30.5713 68.9861 32.1393 69.7924 33.2604L70.5722 34.3448C69.8856 33.9732 69.1342 33.715 68.3409 33.5854C66.4771 33.2809 64.6063 33.7205 63.0731 34.8231C59.908 37.0993 59.1849 41.526 61.461 44.691C62.5636 46.2242 64.1973 47.2363 66.0611 47.5408C67.9249 47.8453 69.7958 47.4057 71.329 46.3031C72.8622 45.2005 73.8742 43.5668 74.1787 41.703C74.4832 39.8392 74.0437 37.9684 72.941 36.4351C72.9151 36.3991 72.8886 36.3636 72.8621 36.3282L70.3638 32.8494C69.7842 32.0434 69.9683 30.9161 70.7743 30.3364C71.5772 29.759 72.702 29.945 73.2816 30.751L75.4567 33.7755C75.8478 34.3193 76.4259 34.6835 77.0847 34.801C77.7502 34.9191 78.4168 34.7705 78.9592 34.3804C80.0803 33.5742 80.3365 32.0062 79.5303 30.8851ZM71.4893 35.8555C70.6379 35.7896 69.7912 35.8344 68.9663 35.9871C68.9513 35.9761 68.9356 35.9658 68.9185 35.9571C67.4822 35.2215 65.9114 34.8586 64.317 34.8863C65.5161 34.274 66.8738 34.0589 68.2274 34.2801C69.4633 34.482 70.5864 35.0297 71.4893 35.8555ZM63.7232 38.8077C62.8697 38.6408 61.9995 38.5892 61.1302 38.6544C61.2435 38.2926 61.3894 37.9402 61.5666 37.6017C61.5731 37.6009 61.5795 37.6002 61.5859 37.5991C62.8756 37.3718 63.9769 37.3844 65.0773 37.6444C65.0671 37.6517 65.0567 37.6586 65.0466 37.666C64.5675 38.0105 64.1257 38.3929 63.7232 38.8077ZM65.8709 37.1328C65.8701 37.1325 65.8693 37.1321 65.8685 37.1319C64.6289 36.7423 63.4315 36.641 62.054 36.8162C62.3581 36.3978 62.7174 36.0115 63.1303 35.6686C64.6818 35.4799 66.3958 35.6779 67.8709 36.2572C67.1785 36.4714 66.5081 36.7639 65.8709 37.1328ZM60.9493 39.3773C61.6923 39.3023 62.4374 39.3191 63.1716 39.4271C62.3144 40.4764 61.6864 41.6945 61.3266 43.0187C60.8379 41.85 60.7211 40.5817 60.9493 39.3773ZM61.8303 43.9812C62.2508 41.6558 63.5341 39.6207 65.4576 38.2374C67.3957 36.8437 69.8655 36.2949 72.2248 36.6533C72.274 36.7166 72.3225 36.7807 72.3696 36.8462C72.5698 37.1245 72.7452 37.4155 72.8963 37.716C68.1614 37.3158 63.8175 40.3959 62.6285 44.9944C62.4148 44.7729 62.2154 44.5345 62.0325 44.2801C61.9618 44.1818 61.8946 44.082 61.8303 43.9812ZM73.4901 39.5544C71.3433 39.4855 69.346 40.0417 67.6939 41.1731C65.9723 42.3521 64.7579 44.0736 64.1684 46.164C63.8354 45.9839 63.5191 45.7746 63.2231 45.5371C64.2114 40.9456 68.5494 37.8697 73.2115 38.4567C73.3372 38.8139 73.4306 39.181 73.4901 39.5544ZM72.5881 43.9613C72.2489 42.7146 71.6631 41.5438 70.8714 40.5269C71.3679 40.4034 71.8833 40.3204 72.4139 40.2804C72.7946 40.9715 73.0828 41.7109 73.2724 42.4813C73.108 43.0057 72.8778 43.5021 72.5881 43.9613ZM73.5494 41.0413C73.443 40.7734 73.3249 40.5103 73.1951 40.2529C73.3166 40.2534 73.4389 40.2565 73.5618 40.2614C73.5736 40.5199 73.5695 40.7803 73.5494 41.0413ZM69.461 43.4677C69.9568 44.2322 70.3355 45.0705 70.5823 45.9571C69.4315 46.6807 68.0992 47.0122 66.7478 46.9134C67.1997 45.3709 68.191 44.1096 69.461 43.4677ZM66.0423 46.8229C65.6178 46.7445 65.207 46.6254 64.8148 46.4677C65.3483 44.4871 66.5033 42.8775 68.0606 41.7931C68.4218 42.1321 68.7526 42.4981 69.0509 42.8873C67.6236 43.6455 66.5229 45.0841 66.0423 46.8229ZM71.1893 45.5253C70.7102 43.9627 69.8472 42.5486 68.6734 41.4053C69.1353 41.1408 69.6262 40.9186 70.1415 40.7421C71.0862 41.8803 71.7428 43.2463 72.0414 44.7017C71.7857 44.9996 71.501 45.2754 71.1893 45.5253Z" fill="white" fill-opacity="0.1"/>
<path d="M120.379 38.9865L119.376 37.5911C119.307 37.4956 119.174 37.4738 119.078 37.5425C118.983 37.6112 118.961 37.7444 119.029 37.8399L120.033 39.2353C120.384 39.7234 120.272 40.406 119.784 40.757C119.55 40.9254 119.262 40.9894 118.973 40.9381C118.684 40.8866 118.43 40.7267 118.258 40.4879L116.941 38.6566C116.453 37.9777 115.505 37.8215 114.828 38.3083C114.15 38.7965 113.994 39.746 114.483 40.4248L114.955 41.0814C114.539 40.8564 114.084 40.7001 113.604 40.6216C112.475 40.4372 111.342 40.7034 110.414 41.3711C108.498 42.7493 108.06 45.4297 109.438 47.3462C110.106 48.2746 111.095 48.8874 112.223 49.0718C113.352 49.2561 114.485 48.99 115.413 48.3223C116.341 47.6547 116.954 46.6655 117.139 45.5369C117.323 44.4083 117.057 43.2755 116.389 42.3472C116.374 42.3254 116.357 42.3039 116.341 42.2824L114.829 40.1759C114.478 39.6879 114.589 39.0053 115.077 38.6543C115.563 38.3047 116.244 38.4173 116.595 38.9054L117.912 40.7367C118.149 41.066 118.499 41.2865 118.898 41.3577C119.301 41.4292 119.705 41.3392 120.033 41.103C120.712 40.6148 120.867 39.6654 120.379 38.9865ZM115.51 41.9962C114.995 41.9563 114.482 41.9834 113.982 42.0759C113.973 42.0692 113.964 42.063 113.953 42.0577C113.084 41.6123 112.133 41.3926 111.167 41.4093C111.893 41.0385 112.715 40.9083 113.535 41.0422C114.283 41.1645 114.963 41.4962 115.51 41.9962ZM110.808 43.7838C110.291 43.6827 109.764 43.6515 109.238 43.691C109.306 43.4719 109.395 43.2585 109.502 43.0535C109.506 43.053 109.51 43.0526 109.514 43.052C110.294 42.9143 110.961 42.9219 111.628 43.0794C111.621 43.0838 111.615 43.088 111.609 43.0924C111.319 43.3011 111.051 43.5326 110.808 43.7838ZM112.108 42.7696C112.108 42.7694 112.107 42.7692 112.107 42.769C111.356 42.5332 110.631 42.4718 109.797 42.5779C109.981 42.3246 110.199 42.0906 110.449 41.883C111.388 41.7688 112.426 41.8887 113.319 42.2394C112.9 42.3691 112.494 42.5462 112.108 42.7696ZM109.128 44.1287C109.578 44.0832 110.029 44.0934 110.474 44.1588C109.955 44.7942 109.574 45.5318 109.356 46.3336C109.061 45.6259 108.99 44.858 109.128 44.1287ZM109.661 46.9164C109.916 45.5083 110.693 44.276 111.858 43.4385C113.031 42.5945 114.527 42.2622 115.956 42.4793C115.985 42.5176 116.015 42.5564 116.043 42.596C116.164 42.7646 116.271 42.9408 116.362 43.1228C113.495 42.8804 110.865 44.7454 110.145 47.5299C110.015 47.3958 109.895 47.2515 109.784 47.0974C109.741 47.0379 109.7 46.9775 109.661 46.9164ZM116.722 44.2359C115.422 44.1942 114.212 44.531 113.212 45.216C112.17 45.93 111.434 46.9724 111.077 48.2381C110.876 48.1291 110.684 48.0023 110.505 47.8585C111.103 45.0783 113.73 43.2158 116.553 43.5713C116.629 43.7875 116.686 44.0098 116.722 44.2359ZM116.175 46.9044C115.97 46.1495 115.615 45.4405 115.136 44.8248C115.437 44.75 115.749 44.6998 116.07 44.6755C116.301 45.094 116.475 45.5417 116.59 46.0082C116.49 46.3257 116.351 46.6263 116.175 46.9044ZM116.758 45.1363C116.693 44.974 116.622 44.8147 116.543 44.6589C116.617 44.6592 116.691 44.661 116.765 44.664C116.772 44.8206 116.77 44.9782 116.758 45.1363ZM114.282 46.6055C114.582 47.0684 114.811 47.576 114.961 48.1128C114.264 48.551 113.457 48.7517 112.639 48.6919C112.913 47.7579 113.513 46.9941 114.282 46.6055ZM112.212 48.6371C111.955 48.5896 111.706 48.5175 111.469 48.422C111.792 47.2227 112.491 46.2481 113.434 45.5915C113.653 45.7967 113.853 46.0184 114.034 46.254C113.169 46.7131 112.503 47.5842 112.212 48.6371ZM115.328 47.8514C115.038 46.9052 114.516 46.0489 113.805 45.3567C114.085 45.1965 114.382 45.062 114.694 44.9551C115.266 45.6443 115.664 46.4714 115.844 47.3527C115.69 47.5331 115.517 47.7001 115.328 47.8514Z" fill="white" fill-opacity="0.1"/>
<path d="M34.502 98.3505L29.5038 98.9003C29.1616 98.9379 28.9146 99.2459 28.9522 99.5882C28.9898 99.9304 29.2978 100.177 29.64 100.14L34.6382 99.5899C36.3863 99.3976 37.965 100.663 38.1573 102.412C38.2495 103.25 37.9975 104.077 37.4518 104.739C36.9047 105.401 36.1324 105.818 35.2771 105.912L28.7176 106.634C26.2861 106.901 24.5249 109.091 24.7916 111.516C25.059 113.947 27.2548 115.708 29.6862 115.441L32.0381 115.182C30.867 115.918 29.8144 116.852 28.9237 117.963C26.831 120.573 25.8798 123.841 26.2456 127.167C27.0007 134.031 33.1995 139.001 40.064 138.246C43.3893 137.881 46.3731 136.242 48.4659 133.632C50.5586 131.022 51.5097 127.753 51.144 124.428C50.7782 121.103 49.1395 118.119 46.5295 116.026C43.9195 113.933 40.6508 112.982 37.3255 113.348C37.2474 113.357 37.1695 113.367 37.0917 113.377L29.5498 114.201C27.8017 114.393 26.2232 113.128 26.0308 111.38C25.8393 109.638 27.1057 108.065 28.8538 107.873L35.4133 107.151C36.5928 107.022 37.6581 106.447 38.413 105.533C39.1748 104.609 39.526 103.452 39.3965 102.275C39.1293 99.8437 36.9335 98.0831 34.502 98.3505ZM35.1671 115.083C34.324 116.339 33.6558 117.684 33.173 119.089C33.143 119.103 33.1135 119.118 33.0851 119.137C30.6997 120.712 28.772 122.819 27.4264 125.303C27.5259 122.92 28.3765 120.638 29.8964 118.743C31.2841 117.012 33.107 115.757 35.1671 115.083ZM32.9583 129.634C31.9577 130.805 31.1202 132.102 30.4639 133.5C30.0044 133.01 29.5879 132.478 29.22 131.91C29.2243 131.899 29.229 131.889 29.2328 131.878C30.0052 129.691 30.9837 128.003 32.3431 126.532C32.3454 126.554 32.3471 126.576 32.3496 126.598C32.4639 127.637 32.6689 128.651 32.9583 129.634ZM32.2449 124.862C32.2438 124.863 32.2425 124.864 32.2414 124.865C30.5611 126.438 29.362 128.197 28.4327 130.474C28.0522 129.641 27.7691 128.75 27.5998 127.815C28.6597 125.257 30.4578 122.785 32.6358 121.014C32.3633 122.269 32.2307 123.558 32.2449 124.862ZM31.4214 134.409C31.9528 133.197 32.6275 132.062 33.4335 131.024C34.3057 133.26 35.6378 135.289 37.3672 136.998C35.1388 136.734 33.0807 135.809 31.4214 134.409ZM39.2905 137.059C36.0697 134.385 34.0478 130.633 33.589 126.461C33.1267 122.258 34.4309 117.97 37.0384 114.643C37.1789 114.622 37.3199 114.603 37.4619 114.588C38.0657 114.521 38.6672 114.504 39.2624 114.533C34.5219 121.488 35.4904 130.871 41.5487 136.71C41.0209 136.847 40.4796 136.946 39.9278 137.007C39.7146 137.031 39.5022 137.047 39.2905 137.059ZM42.6154 115.217C40.6396 118.469 39.7583 122.034 40.0649 125.568C40.3844 129.251 41.9826 132.623 44.6938 135.353C44.1261 135.71 43.5277 136.015 42.9037 136.265C36.6814 130.742 35.7142 121.372 40.6795 114.691C41.3399 114.808 41.9875 114.984 42.6154 115.217ZM48.628 120.446C46.4095 119.884 44.0932 119.768 41.8352 120.104C42.0771 119.23 42.3978 118.363 42.7982 117.51C44.1958 117.524 45.5872 117.724 46.9409 118.102C47.6066 118.812 48.172 119.6 48.628 120.446ZM44.9607 116.421C44.4547 116.352 43.946 116.305 43.436 116.281C43.5427 116.094 43.6538 115.908 43.7685 115.722C44.1775 115.929 44.5756 116.162 44.9607 116.421ZM45.1434 124.84C46.7545 124.741 48.3774 124.887 49.9599 125.278C50.074 127.684 49.4252 130.028 48.096 132.026C46.1101 129.986 45.0277 127.358 45.1434 124.84ZM47.3421 133.036C46.8515 133.623 46.31 134.152 45.7252 134.62C43.1345 132.072 41.6574 128.889 41.3407 125.542C42.1781 125.28 43.0309 125.089 43.891 124.968C43.8177 127.83 45.0783 130.78 47.3421 133.036ZM49.8226 123.966C46.9948 123.344 44.0619 123.444 41.2762 124.259C41.2703 123.317 41.3551 122.366 41.5316 121.417C44.11 120.951 46.7889 121.128 49.294 121.935C49.5309 122.588 49.7085 123.268 49.8226 123.966Z" fill="white" fill-opacity="0.1"/>
</svg>
