<svg width="95" height="87" viewBox="0 0 95 87" fill="none" xmlns="http://www.w3.org/2000/svg">
<path d="M74.2188 0C75.4288 0 76.5625 0.552134 77.3075 1.48137L77.6023 1.90222L94.4253 29.584C95.2201 30.8922 95.1817 32.5258 94.3647 33.7857L94.0635 34.1906L50.5218 85.5998C49.0461 87.3422 46.438 87.4584 44.8111 85.9486L44.4782 85.5998L0.93663 34.1906C-0.0529143 33.0225 -0.26987 31.4031 0.340624 30.0312L0.574838 29.584L17.3978 1.90222C18.0258 0.868775 19.0864 0.187485 20.2683 0.0332973L20.7813 0H74.2188ZM61.4136 35.5909H33.5825L47.4961 69.8848L61.4136 35.5909ZM82.5075 35.5909H69.9556L58.4092 64.0439L82.5075 35.5909ZM25.0404 35.5909H12.4886L36.5829 64.036L25.0404 35.5909ZM30.3763 7.9091H23.0019L10.9844 27.6818H24.7198L30.3763 7.9091ZM56.3904 7.9091H38.6056L32.9492 27.6818H62.0469L56.3904 7.9091ZM71.9942 7.9091H64.6198L70.2763 27.6818H84.0117L71.9942 7.9091Z" fill="url(#paint0_linear_29_203)" fill-opacity="0.15"/>
<defs>
<linearGradient id="paint0_linear_29_203" x1="48" y1="1.04233e-08" x2="47.5" y2="87" gradientUnits="userSpaceOnUse">
<stop stop-color="#FF00B8"/>
<stop offset="1" stop-color="#7000FF"/>
</linearGradient>
</defs>
</svg>
