<svg width="40" height="40" viewBox="0 0 40 40" fill="none" xmlns="http://www.w3.org/2000/svg">
<path d="M20.2162 21.4041C20.0902 21.3861 19.9282 21.3861 19.7842 21.4041C16.6162 21.2961 14.0962 18.7041 14.0962 15.518C14.0962 12.26 16.7242 9.61401 20.0002 9.61401C23.2582 9.61401 25.9042 12.26 25.9042 15.518C25.8862 18.7041 23.3842 21.2961 20.2162 21.4041Z" stroke="#E5383B" stroke-width="3.75" stroke-linecap="round" stroke-linejoin="round"/>
<path d="M32.1317 33.2843C28.9277 36.2183 24.6797 38.0003 19.9997 38.0003C15.3197 38.0003 11.0717 36.2183 7.86768 33.2843C8.04768 31.5923 9.12768 29.9363 11.0537 28.6403C15.9857 25.3643 24.0497 25.3643 28.9457 28.6403C30.8717 29.9363 31.9517 31.5923 32.1317 33.2843Z" stroke="#E5383B" stroke-width="3.75" stroke-linecap="round" stroke-linejoin="round"/>
<path d="M20 38C29.9411 38 38 29.9411 38 20C38 10.0589 29.9411 2 20 2C10.0589 2 2 10.0589 2 20C2 29.9411 10.0589 38 20 38Z" stroke="#E5383B" stroke-width="3.75" stroke-linecap="round" stroke-linejoin="round"/>
</svg>
