<svg width="36" height="36" viewBox="0 0 36 36" fill="none" xmlns="http://www.w3.org/2000/svg">
<path d="M34.8364 12.6766L24.0443 11.0342L19.22 0.792305C19.0882 0.511888 18.8714 0.284884 18.6037 0.146901C17.9321 -0.200281 17.116 0.0890376 16.7802 0.792305L11.9558 11.0342L1.16373 12.6766C0.866192 12.7211 0.594158 12.868 0.385882 13.0906C0.134088 13.3616 -0.00466244 13.7262 0.000119635 14.1043C0.00490171 14.4823 0.152825 14.843 0.411385 15.1069L8.21961 23.0787L6.37488 34.3355C6.33162 34.5973 6.35929 34.8666 6.45476 35.1129C6.55022 35.3591 6.70966 35.5724 6.91499 35.7285C7.12032 35.8847 7.36333 35.9775 7.61646 35.9964C7.86959 36.0153 8.12271 35.9595 8.34713 35.8355L18.0001 30.5209L27.653 35.8355C27.9166 35.9824 28.2226 36.0313 28.5159 35.9779C29.2555 35.8444 29.7528 35.1099 29.6253 34.3355L27.7806 23.0787L35.5888 15.1069C35.8013 14.8888 35.9416 14.6039 35.9841 14.2924C36.0989 13.5134 35.5803 12.7924 34.8364 12.6766Z" fill="#E5383B"/>
</svg>
