<svg width="512" height="512" viewBox="0 0 512 512" fill="none" xmlns="http://www.w3.org/2000/svg">
<rect width="512" height="512" rx="55" fill="#161A1D"/>
<path d="M67 251.861V511.5H454L453.999 251.861C454.168 213.79 414.168 229.93 401.667 241.727L320.5 309.287H200.5L124.5 242.692C100.501 219.53 66.9996 224.622 67 251.861Z" fill="#0B090A" stroke="black"/>
<g filter="url(#filter0_i_1_20)">
<circle cx="165.5" cy="448.5" r="54.5" fill="#E5383B"/>
</g>
<g filter="url(#filter1_i_1_20)">
<circle cx="358.5" cy="448.5" r="54.5" fill="#E5383B"/>
</g>
<path d="M240 495C240 485 245.491 483 260 483C276.491 483 281 486.5 281 495C281 503.947 275.389 508.092 270.991 508.865C270.175 509.008 269.5 509.672 269.5 510.5C269.5 511.328 268.829 512 268 512H252.5C251.672 512 251 511.328 251 510.5C251 509.672 250.321 509.015 249.508 508.86C243.427 507.702 240 499.633 240 495Z" fill="#6C6C6C"/>
<circle cx="174.5" cy="448.5" r="36.5" fill="black"/>
<circle cx="346.5" cy="448.5" r="36.5" fill="black"/>
<defs>
<filter id="filter0_i_1_20" x="111" y="394" width="109" height="109" filterUnits="userSpaceOnUse" color-interpolation-filters="sRGB">
<feFlood flood-opacity="0" result="BackgroundImageFix"/>
<feBlend mode="normal" in="SourceGraphic" in2="BackgroundImageFix" result="shape"/>
<feColorMatrix in="SourceAlpha" type="matrix" values="0 0 0 0 0 0 0 0 0 0 0 0 0 0 0 0 0 0 127 0" result="hardAlpha"/>
<feOffset dx="5" dy="-5"/>
<feComposite in2="hardAlpha" operator="arithmetic" k2="-1" k3="1"/>
<feColorMatrix type="matrix" values="0 0 0 0 0 0 0 0 0 0 0 0 0 0 0 0 0 0 0.25 0"/>
<feBlend mode="normal" in2="shape" result="effect1_innerShadow_1_20"/>
</filter>
<filter id="filter1_i_1_20" x="304" y="394" width="109" height="109" filterUnits="userSpaceOnUse" color-interpolation-filters="sRGB">
<feFlood flood-opacity="0" result="BackgroundImageFix"/>
<feBlend mode="normal" in="SourceGraphic" in2="BackgroundImageFix" result="shape"/>
<feColorMatrix in="SourceAlpha" type="matrix" values="0 0 0 0 0 0 0 0 0 0 0 0 0 0 0 0 0 0 127 0" result="hardAlpha"/>
<feOffset dx="-5" dy="-5"/>
<feComposite in2="hardAlpha" operator="arithmetic" k2="-1" k3="1"/>
<feColorMatrix type="matrix" values="0 0 0 0 0 0 0 0 0 0 0 0 0 0 0 0 0 0 0.25 0"/>
<feBlend mode="normal" in2="shape" result="effect1_innerShadow_1_20"/>
</filter>
</defs>
</svg>
