<svg width="92" height="116" viewBox="0 0 92 116" fill="none" xmlns="http://www.w3.org/2000/svg">
<path d="M46 0C30.6 0 18 12.6 18 28V64H74V28C74 12.6 61.4 0 46 0Z" fill="#56333D"/>
<path d="M81.6 68.2C72.2 63 59.2 56 58 56H34C32.8 56 19.8 63 10.4 68.2C4 71.8 0 78.4 0 85.8V116H92V85.8C92 78.4 88 71.8 81.6 68.2Z" fill="#F7D2C4"/>
<path d="M81.8002 68.4C72.2002 63 59.2002 56 58.0002 56H34.0002C32.8002 56 19.8002 63 10.4002 68.2C10.4002 68.2 10.2002 68.2 10.2002 68.4L18.0002 86V116H74.0002V86L81.8002 68.4Z" fill="#CA9BCE"/>
<path d="M82.4 98.8L76 94V90C76 87.8 74.2 86 72 86H63.6C62.6 86 61.6 86.4 60.8 87.2L49.2 98.8C48.4 99.6 47.4 100 46.4 100H42V116H62L68.8 109.2C69.6 108.4 70.6 108 71.6 108H80C82.2 108 84 106.2 84 104V102C84 100.8 83.4 99.6 82.4 98.8Z" fill="#CC6C25"/>
<path d="M50 14L64.4 24.8C65.4 25.6 66 26.8 66 28V38.4C66 46.8 61.6 54.6 54.4 59L52.2 60.4C48.4 62.6 43.6 62.6 39.8 60.4L37.6 59C30.4 54.6 26 46.8 26 38.4V29.6C26 27.6 27.6 25.8 29.6 25.6L36.4 25C42.4 24.4 47.4 20.6 49.6 15L50 14Z" fill="#F7D2C4"/>
<path d="M58 90V98C58 100.2 59.8 102 62 102H64C66.2 102 68 100.2 68 98V86H63.6C62.6 86 61.6 86.4 60.8 87.2L58 90Z" fill="#894415"/>
</svg>
