<svg width="36" height="36" viewBox="0 0 36 36" fill="none" xmlns="http://www.w3.org/2000/svg">
<path d="M12.9769 18.4151C13.2042 19.3992 12.1245 20.1472 11.2846 19.6222L8.4204 17.8324L4.84381 23.5559C3.90978 25.0504 4.98936 27 6.75083 27H10.4062C10.8722 27 11.25 27.3778 11.25 27.8437V30.6562C11.25 31.1222 10.8722 31.5 10.4062 31.5H6.75807C1.46114 31.5 -1.77098 25.6607 1.03406 21.1725L4.60749 15.4499L1.74401 13.6606C0.894564 13.13 1.11359 11.8352 2.08706 11.6104L9.83811 9.82098C10.4436 9.6812 11.0476 10.0587 11.1873 10.664L12.9769 18.4151ZM19.907 5.55387L22.8101 10.1998L19.9456 11.9898C19.0983 12.5191 19.3128 13.8146 20.2887 14.0399L28.0397 15.8294C28.6495 15.9699 29.2501 15.5877 29.3889 14.9863L31.1784 7.23532C31.4032 6.26191 30.3353 5.49727 29.4861 6.0282L26.6253 7.81582L23.724 3.16944C21.0858 -1.05163 14.9202 -1.06133 12.276 3.16944L11.013 5.19204C10.7662 5.5872 10.8864 6.10758 11.2816 6.35452L13.6665 7.84479C14.0616 8.09172 14.5822 7.97156 14.8292 7.5764L16.0921 5.55542C16.9859 4.12519 19.0433 4.17195 19.907 5.55387ZM34.9656 21.1725L33.0309 18.0742C32.784 17.6788 32.2634 17.5585 31.8681 17.8055L29.4872 19.2933C29.0921 19.5402 28.9718 20.0607 29.2188 20.4559L31.1569 23.5576C32.089 25.049 31.0122 27.0001 29.2489 27.0001H22.5V23.6264C22.5 22.627 21.2877 22.1229 20.5795 22.831L14.9545 28.4546C14.5152 28.8939 14.5152 29.6063 14.9545 30.0456L20.5795 35.6698C21.2828 36.3732 22.5 35.8804 22.5 34.8742V31.5H29.2416C34.5343 31.5 37.7729 25.6643 34.9656 21.1725Z" fill="#E5383B"/>
</svg>
