<svg width="39" height="37" viewBox="0 0 39 37" fill="none" xmlns="http://www.w3.org/2000/svg">
<path d="M19.0835 23.2499C21.914 23.2499 24.2085 20.9554 24.2085 18.1249C24.2085 15.2943 21.914 12.9999 19.0835 12.9999C16.253 12.9999 13.9585 15.2943 13.9585 18.1249C13.9585 20.9554 16.253 23.2499 19.0835 23.2499Z" stroke="#E5383B" stroke-width="3.75" stroke-miterlimit="10" stroke-linecap="round" stroke-linejoin="round"/>
<path d="M2 19.6281V16.6214C2 14.8447 3.45208 13.3756 5.24583 13.3756C8.33792 13.3756 9.60208 11.189 8.0475 8.50687C7.15917 6.96937 7.68875 4.97062 9.24333 4.08229L12.1987 2.39104C13.5483 1.58812 15.2908 2.06646 16.0938 3.41604L16.2817 3.74062C17.8192 6.42271 20.3475 6.42271 21.9021 3.74062L22.09 3.41604C22.8929 2.06646 24.6354 1.58812 25.985 2.39104L28.9404 4.08229C30.495 4.97062 31.0246 6.96937 30.1362 8.50687C28.5817 11.189 29.8458 13.3756 32.9379 13.3756C34.7146 13.3756 36.1838 14.8276 36.1838 16.6214V19.6281C36.1838 21.4047 34.7317 22.8739 32.9379 22.8739C29.8458 22.8739 28.5817 25.0606 30.1362 27.7426C31.0246 29.2972 30.495 31.2789 28.9404 32.1672L25.985 33.8585C24.6354 34.6614 22.8929 34.1831 22.09 32.8335L21.9021 32.5089C20.3646 29.8268 17.8362 29.8268 16.2817 32.5089L16.0938 32.8335C15.2908 34.1831 13.5483 34.6614 12.1987 33.8585L9.24333 32.1672C7.68875 31.2789 7.15917 29.2801 8.0475 27.7426C9.60208 25.0606 8.33792 22.8739 5.24583 22.8739C3.45208 22.8739 2 21.4047 2 19.6281Z" stroke="#E5383B" stroke-width="3.75" stroke-miterlimit="10" stroke-linecap="round" stroke-linejoin="round"/>
</svg>
