<svg width="173" height="154" viewBox="0 0 173 154" fill="none" xmlns="http://www.w3.org/2000/svg">
<path d="M112.581 111.865L99.9466 106.77C101.745 102.441 103.564 99.0414 105.402 96.5713C107.305 94.0742 109.582 92.0179 112.234 90.4024C114.886 88.787 118.232 87.0829 122.272 85.29C125.214 84.0018 127.919 82.7764 130.389 81.6138C132.922 80.4242 135.171 78.9617 137.134 77.2264C139.116 75.4459 140.728 73.0159 141.97 69.9366C143.23 66.812 143.75 63.8894 143.531 61.1686C143.358 58.4661 142.431 56.0651 140.75 53.9658C139.115 51.8848 136.713 50.205 133.543 48.9265C130.916 47.8672 128.234 47.3382 125.496 47.3394C122.757 47.3407 120.262 48.0453 118.009 49.4534C115.775 50.8161 113.996 53.0733 112.672 56.2249L100.106 51.1567C102.26 46.0762 105.299 42.195 109.224 39.5133C113.194 36.8498 117.677 35.3937 122.674 35.1451C127.671 34.8964 132.773 35.8222 137.981 37.9226C143.732 40.2421 148.202 43.2561 151.392 46.9646C154.628 50.6914 156.524 54.9312 157.082 59.684C157.658 64.3915 156.878 69.3944 154.741 74.6926C153.097 78.7681 150.743 82.1888 147.68 84.9546C144.68 87.6934 141.286 90.0366 137.5 91.9843C133.713 93.932 129.823 95.6799 125.829 97.2281C122.407 98.533 119.681 100.461 117.652 103.012C115.623 105.563 113.932 108.514 112.581 111.865ZM90.7188 128.083C91.5406 126.045 92.8686 124.58 94.7028 123.688C96.5369 122.795 98.654 122.833 101.054 123.801C103.499 124.787 105.073 126.238 105.775 128.153C106.476 130.069 106.416 132.045 105.594 134.083C104.809 136.03 103.499 137.45 101.665 138.342C99.8312 139.235 97.6914 139.188 95.2461 138.201C92.8461 137.233 91.2952 135.792 90.5934 133.877C89.8916 131.962 89.9334 130.03 90.7188 128.083Z" fill="white" fill-opacity="0.1"/>
<path d="M46.6009 55.1821L42.1124 58.272C41.0653 56.7165 40.3326 55.3594 39.9145 54.2009C39.5013 53.0152 39.318 51.8017 39.3645 50.5603C39.411 49.319 39.5811 47.8266 39.8748 46.0832C40.0943 44.8176 40.2827 43.6446 40.44 42.5642C40.6022 41.4566 40.6106 40.3838 40.4652 39.3458C40.3086 38.2917 39.8538 37.2176 39.1007 36.1237C38.3365 35.0136 37.4764 34.1948 36.5205 33.6673C35.5807 33.1287 34.5751 32.908 33.5039 33.0053C32.4487 33.0914 31.3581 33.5221 30.2319 34.2973C29.2989 34.9397 28.5303 35.7177 27.9263 36.6315C27.3223 37.5452 27.0066 38.5332 26.9791 39.5955C26.9405 40.6416 27.3008 41.7333 28.0599 42.8705L23.5956 45.9438C22.3763 44.1038 21.7525 42.2331 21.7241 40.332C21.7119 38.4198 22.2157 36.6028 23.2357 34.881C24.2556 33.1593 25.6906 31.6616 27.5407 30.388C29.5839 28.9815 31.5761 28.1554 33.5173 27.9098C35.4747 27.6531 37.3076 27.9563 39.0162 28.8193C40.7137 29.6662 42.2103 31.0308 43.5061 32.9131C44.5028 34.361 45.1244 35.9012 45.3709 37.5336C45.6223 39.1389 45.655 40.7881 45.469 42.4811C45.2829 44.1742 45.0073 45.8578 44.6422 47.5318C44.3222 48.9614 44.3637 50.2962 44.7669 51.5363C45.17 52.7763 45.7813 53.9916 46.6009 55.1821ZM47.1854 66.0546C46.6871 65.3307 46.4915 64.5643 46.5986 63.7554C46.7057 62.9466 47.1856 62.2487 48.0383 61.6618C48.907 61.0637 49.7383 60.859 50.532 61.0476C51.3258 61.2363 51.9719 61.6925 52.4703 62.4165C52.9465 63.1083 53.131 63.8586 53.0239 64.6674C52.9168 65.4762 52.4288 66.1796 51.5601 66.7777C50.7074 67.3647 49.8842 67.5638 49.0904 67.3752C48.2967 67.1866 47.6617 66.7464 47.1854 66.0546Z" fill="white" fill-opacity="0.1"/>
<path d="M36.2577 129.904L31.3189 123.391C33.5776 121.715 35.5606 120.523 37.2678 119.817C39.0161 119.116 40.8219 118.758 42.6851 118.743C44.5483 118.727 46.7962 118.879 49.4288 119.199C51.3403 119.441 53.1109 119.643 54.7407 119.804C56.4115 119.971 58.0196 119.91 59.565 119.62C61.1337 119.313 62.7117 118.558 64.2991 117.354C65.9099 116.132 67.0776 114.787 67.8023 113.319C68.5447 111.873 68.8062 110.351 68.5868 108.753C68.3851 107.178 67.6647 105.573 66.4256 103.939C65.3989 102.585 64.1801 101.487 62.7694 100.645C61.3587 99.8028 59.8565 99.3976 58.2629 99.4295C56.6927 99.4436 55.0816 100.059 53.4298 101.274L48.5176 94.7963C51.1909 92.8427 53.951 91.7793 56.7977 91.6061C59.6622 91.4562 62.4195 92.0861 65.0696 93.496C67.7196 94.9058 70.0625 96.953 72.0982 99.6376C74.3463 102.602 75.7212 105.531 76.2228 108.423C76.7421 111.338 76.414 114.105 75.2384 116.725C74.0861 119.327 72.1443 121.663 69.413 123.734C67.312 125.327 65.047 126.365 62.6178 126.846C60.2298 127.334 57.7609 127.496 55.2111 127.334C52.6614 127.171 50.1198 126.874 47.5862 126.442C45.422 126.061 43.4248 126.215 41.5944 126.905C39.7641 127.594 37.9851 128.594 36.2577 129.904ZM20.0062 131.528C21.0567 130.731 22.1916 130.385 23.411 130.49C24.6303 130.595 25.709 131.266 26.6472 132.503C27.6031 133.764 27.9671 134.995 27.739 136.198C27.511 137.4 26.8718 138.4 25.8213 139.196C24.8175 139.957 23.7059 140.286 22.4866 140.181C21.2673 140.076 20.1796 139.393 19.2238 138.132C18.2856 136.895 17.9305 135.675 18.1585 134.473C18.3865 133.271 19.0024 132.289 20.0062 131.528Z" fill="white" fill-opacity="0.05"/>
<path d="M145.519 121.563L146.646 123.534C145.963 123.914 145.374 124.172 144.879 124.305C144.372 124.435 143.862 124.469 143.348 124.407C142.834 124.344 142.221 124.222 141.507 124.039C140.989 123.904 140.509 123.785 140.065 123.683C139.611 123.577 139.166 123.536 138.73 123.56C138.287 123.589 137.825 123.74 137.345 124.015C136.857 124.294 136.487 124.622 136.235 125.001C135.979 125.373 135.852 125.782 135.855 126.231C135.855 126.672 135.996 127.14 136.278 127.634C136.513 128.044 136.809 128.39 137.167 128.672C137.526 128.955 137.925 129.12 138.365 129.169C138.798 129.221 139.264 129.109 139.763 128.834L140.884 130.794C140.077 131.236 139.279 131.43 138.489 131.376C137.694 131.315 136.957 131.043 136.278 130.559C135.598 130.076 135.026 129.428 134.562 128.616C134.049 127.719 133.775 126.863 133.74 126.048C133.702 125.226 133.891 124.476 134.309 123.796C134.719 123.121 135.338 122.547 136.165 122.074C136.8 121.711 137.461 121.506 138.148 121.46C138.823 121.412 139.509 121.456 140.206 121.592C140.902 121.728 141.592 121.901 142.274 122.11C142.856 122.293 143.412 122.322 143.941 122.198C144.47 122.073 144.996 121.862 145.519 121.563ZM150.053 121.698C149.735 121.879 149.41 121.934 149.078 121.861C148.746 121.789 148.473 121.565 148.259 121.191C148.041 120.809 147.985 120.457 148.091 120.134C148.196 119.811 148.408 119.559 148.726 119.377C149.03 119.203 149.348 119.153 149.68 119.225C150.012 119.298 150.287 119.525 150.505 119.906C150.72 120.281 150.774 120.629 150.668 120.952C150.562 121.275 150.357 121.524 150.053 121.698Z" fill="white" fill-opacity="0.05"/>
<path d="M74.879 74.215L71.5965 72.6585C72.1439 71.5346 72.6818 70.6585 73.2103 70.0301C73.7562 69.3954 74.395 68.8841 75.1266 68.4961C75.8581 68.1081 76.7759 67.7074 77.8797 67.2941C78.6831 66.9978 79.4227 66.7144 80.0985 66.444C80.7916 66.1675 81.4133 65.8138 81.9634 65.3829C82.5191 64.9403 82.9867 64.319 83.366 63.5189C83.751 62.7072 83.9358 61.9374 83.9206 61.2097C83.9172 60.4875 83.7084 59.8337 83.2943 59.2483C82.892 58.6684 82.279 58.1832 81.4555 57.7927C80.7731 57.4692 80.0674 57.2859 79.3385 57.2428C78.6095 57.1998 77.9341 57.3479 77.3121 57.687C76.6958 58.0144 76.1864 58.5871 75.7842 59.4051L72.5193 57.857C73.1733 56.5387 74.0438 55.5537 75.131 54.9019C76.23 54.2558 77.4465 53.9392 78.7805 53.9521C80.1146 53.965 81.4581 54.2922 82.8111 54.9338C84.3053 55.6423 85.4476 56.5154 86.2381 57.5531C87.0403 58.5964 87.4781 59.755 87.5513 61.029C87.63 62.2913 87.3431 63.6106 86.6904 64.9872C86.1883 66.046 85.5076 66.9193 84.6483 67.6071C83.8063 68.2886 82.866 68.8587 81.8272 69.3172C80.7883 69.7757 79.7251 70.1794 78.6374 70.5283C77.7058 70.8215 76.9497 71.2916 76.3691 71.9386C75.7886 72.5855 75.2919 73.3443 74.879 74.215ZM68.8027 78.1859C69.0537 77.6565 69.4304 77.2875 69.9328 77.079C70.4352 76.8705 70.9981 76.914 71.6217 77.2097C72.257 77.511 72.6529 77.9221 72.8094 78.443C72.9659 78.9639 72.9186 79.4891 72.6676 80.0185C72.4277 80.5244 72.0565 80.8816 71.5542 81.0902C71.0518 81.2987 70.483 81.2523 69.8477 80.9511C69.2241 80.6554 68.8341 80.2471 68.6776 79.7262C68.5211 79.2052 68.5628 78.6918 68.8027 78.1859Z" fill="white" fill-opacity="0.05"/>
<path d="M71.2978 38.7677L69.5881 33.5936C71.3745 33.0239 72.8824 32.7005 74.1117 32.6234C75.3657 32.5587 76.582 32.7224 77.7606 33.1146C78.9393 33.5068 80.3244 34.0879 81.9159 34.8579C83.0694 35.4229 84.1427 35.9322 85.1359 36.3856C86.1538 36.8515 87.1814 37.1599 88.2186 37.3108C89.2744 37.4557 90.4328 37.3197 91.6939 36.903C92.9735 36.4801 94.0003 35.8837 94.7744 35.1137C95.5545 34.3622 96.0479 33.4587 96.2545 32.403C96.4672 31.366 96.359 30.1984 95.9301 28.9002C95.5746 27.8246 95.0429 26.869 94.3348 26.0333C93.6266 25.1977 92.7666 24.6179 91.7545 24.2941C90.7609 23.9642 89.612 24.0045 88.3078 24.4149L86.6072 19.2686C88.7151 18.6133 90.6855 18.5381 92.5186 19.0431C94.3578 19.5667 95.961 20.5591 97.3284 22.0203C98.6957 23.4815 99.7318 25.2784 100.436 27.4111C101.215 29.7663 101.45 31.9101 101.142 33.8425C100.841 35.7934 100.037 37.4682 98.7298 38.8668C97.4415 40.2593 95.7125 41.3141 93.5427 42.0311C91.8737 42.5826 90.2211 42.7482 88.5849 42.5277C86.9734 42.3197 85.381 41.8894 83.8078 41.2368C82.2345 40.5842 80.6954 39.8483 79.1905 39.0291C77.9077 38.3216 76.6146 37.9879 75.3113 38.0277C74.008 38.0675 72.6702 38.3142 71.2978 38.7677ZM60.6964 36.285C61.5309 36.0092 62.3214 36.036 63.0679 36.3653C63.8144 36.6946 64.35 37.3507 64.6748 38.3335C65.0057 39.335 64.9695 40.1903 64.5662 40.8995C64.1629 41.6088 63.544 42.1013 62.7095 42.377C61.9121 42.6405 61.1401 42.6076 60.3936 42.2784C59.6471 41.9491 59.1084 41.2837 58.7775 40.2823C58.4527 39.2994 58.492 38.4533 58.8953 37.7441C59.2986 37.0349 59.899 36.5485 60.6964 36.285Z" fill="white" fill-opacity="0.1"/>
</svg>
