<svg width="36" height="36" viewBox="0 0 36 36" fill="none" xmlns="http://www.w3.org/2000/svg">
<path d="M33.1176 12.061C29.8023 4.68828 24.4692 -0.920286 21.7713 0.125819C17.1897 1.908 24.5006 10.4549 1.99845 19.1937C0.0540212 19.9518 -0.437841 22.9701 0.376348 24.7783C1.18844 26.5825 3.84659 28.3807 5.79102 27.6266C6.128 27.4946 7.36288 27.1145 7.36288 27.1145C8.75056 28.8967 10.2031 27.8406 10.7201 28.9707L13.1438 34.2912C13.6022 35.2953 14.6404 36.2254 15.3938 35.9514L19.6846 34.3933C20.6641 34.0372 20.8964 33.2011 20.5971 32.5451C20.2748 31.835 18.952 31.627 18.5732 30.7989C18.1964 29.9748 16.9636 27.3225 16.6099 26.4865C16.1285 25.3503 17.152 24.4243 18.6401 24.2782C28.8834 23.2541 30.7985 29.3027 34.2855 27.9466C36.9793 26.8965 36.4309 19.4278 33.1176 12.061ZM31.9644 24.0142C31.3637 24.2442 27.3325 21.2099 24.7581 15.4794C22.1815 9.75279 22.506 4.51826 23.1046 4.28424C23.7032 4.05421 27.636 7.71858 30.2104 13.4452C32.7869 19.1717 32.563 23.7802 31.9644 24.0142Z" fill="#E5383B"/>
</svg>
