<svg width="120" height="100" viewBox="0 0 120 100" fill="none" xmlns="http://www.w3.org/2000/svg">
<path d="M2.99994 99.9999C2.22994 99.9999 1.45994 99.7099 0.879941 99.1199C-0.290059 97.9499 -0.290059 96.0499 0.879941 94.8799L6.41994 89.3399C7.58994 88.1699 9.48994 88.1699 10.6599 89.3399C11.8299 90.5099 11.8299 92.4099 10.6599 93.5799L5.11994 99.1199C4.53994 99.7099 3.76994 99.9999 2.99994 99.9999Z" fill="#E5383B" fill-opacity="0.5"/>
<path d="M117 20H95.0002C93.3402 20 92.0002 21.34 92.0002 23C92.0002 24.66 93.3402 26 95.0002 26H109.76L64.4102 71.34C63.6302 72.12 62.3602 72.12 61.5802 71.34L48.6602 58.41C47.1502 56.9 45.1402 56.07 43.0002 56.07C40.8602 56.07 38.8502 56.9 37.3402 58.41L16.6602 79.1C15.4902 80.27 15.4902 82.17 16.6602 83.34C17.2502 83.93 18.0102 84.22 18.7802 84.22C19.5502 84.22 20.3202 83.93 20.9002 83.34L41.5902 62.65C42.3702 61.87 43.6402 61.87 44.4202 62.65L57.3502 75.58C60.4702 78.7 65.5402 78.7 68.6602 75.58L114 30.24V45C114 46.66 115.34 48 117 48C118.66 48 120 46.66 120 45V23C120 21.34 118.66 20 117 20Z" fill="#353535"/>
<path d="M40 3.26001V17.26C40 18.92 41.34 20.26 43 20.26C44.66 20.26 46 18.92 46 17.26V3.26001C46 1.60001 44.66 0.26001 43 0.26001C41.34 0.26001 40 1.60001 40 3.26001Z" fill="#E5383B"/>
<path d="M13.3798 9.66991C11.9598 10.5199 11.4998 12.3699 12.3498 13.7899L18.5298 24.0799C19.0898 25.0199 20.0898 25.5399 21.0998 25.5399C21.6298 25.5399 22.1598 25.3999 22.6398 25.1099C24.0598 24.2599 24.5198 22.4099 23.6698 20.9899L17.4998 10.6899C16.6498 9.26991 14.7998 8.80991 13.3798 9.66991Z" fill="#E5383B" fill-opacity="0.65"/>
<path d="M63.35 25.1001C63.83 25.3901 64.37 25.5301 64.89 25.5301C65.91 25.5301 66.9 25.0101 67.46 24.0701L73.64 13.7801C74.49 12.3601 74.03 10.5201 72.61 9.66009C71.19 8.81009 69.35 9.27009 68.49 10.6901L62.31 20.9801C61.47 22.4001 61.93 24.2401 63.35 25.1001Z" fill="#E5383B" fill-opacity="0.35"/>
</svg>
