<svg width="138" height="135" viewBox="0 0 138 135" fill="none" xmlns="http://www.w3.org/2000/svg">
<path d="M53.97 51H48.03C31.446 51 18 64.446 18 81.03V122.157H84V81.03C84 64.446 70.554 51 53.97 51Z" fill="#00ACC1"/>
<path d="M68.4871 102H52.3231C50.7421 102 49.2241 101.376 48.0991 100.26L24.0001 76.371C21.3091 66.123 36.2881 71.166 42.0001 75L54.6721 86.181H72.2851C80.2291 93.156 75.3901 102 68.4871 102Z" fill="#00838F"/>
<path d="M51 45C40.566 45 32.082 36.516 32.082 26.082C32.082 15.648 40.566 7.16699 51 7.16699C61.434 7.16699 69.918 15.651 69.918 26.085C69.918 36.519 61.434 45 51 45Z" fill="#FFBA57"/>
<path d="M138 117H0V135H138V117Z" fill="#B3E5FC"/>
<path d="M32.6069 22.239C32.6069 22.239 41.8019 20.4 50.9999 20.4C60.1979 20.4 69.3929 22.239 69.3929 22.239C69.3929 14.883 67.5539 3.84597 67.5539 3.84597C67.5539 3.84597 63.1829 0.167969 50.5409 0.167969C37.8959 0.167969 34.4489 3.84597 34.4489 3.84597C34.4489 3.84597 32.6069 14.883 32.6069 22.239Z" fill="#00ACC1"/>
<path d="M131.808 50.823C131.808 50.823 116.559 51.516 110.322 48.741L112.746 71.496C112.746 71.496 134.235 70.575 131.808 50.823Z" fill="#CC6C25"/>
<path d="M106.284 73.9649C114.282 73.9649 120.765 67.4816 120.765 59.4839C120.765 51.4863 114.282 45.0029 106.284 45.0029C98.2866 45.0029 91.8032 51.4863 91.8032 59.4839C91.8032 67.4816 98.2866 73.9649 106.284 73.9649Z" fill="#CC6C25"/>
<path d="M104.82 100.038C104.82 104.865 95.1271 111.327 90.3391 114.519V124.173C93.0031 124.173 95.1661 126.336 95.1661 129H85.5121C82.8481 129 80.6851 126.837 80.6851 124.173V104.865L104.82 100.038Z" fill="#CC6C25"/>
<path d="M112.446 90.384V124.173C115.11 124.173 117.273 126.336 117.273 129H107.619C104.955 129 102.792 126.837 102.792 124.173V95.211L112.446 90.384Z" fill="#CC6C25"/>
<path d="M112.173 57.0449C113.505 57.0449 114.585 55.9651 114.585 54.6329C114.585 53.3008 113.505 52.2209 112.173 52.2209C110.841 52.2209 109.761 53.3008 109.761 54.6329C109.761 55.9651 110.841 57.0449 112.173 57.0449Z" fill="#3E2723"/>
<path d="M131.856 55.614C129.897 55.632 128.046 54.489 127.302 52.554C127.092 52.008 127.026 51.45 127.02 50.895C129.828 50.91 131.808 50.823 131.808 50.823C132.027 52.611 131.994 54.165 131.856 55.614Z" fill="#3E2723"/>
<path d="M114 67.4819L118.335 86.7959C119.031 89.8979 118.731 93.1379 117.48 96.0599L110.511 112.323L90.4951 124.554L86.4181 129H77.1211C70.7911 129 65.6611 123.87 65.6611 117.54V114.291C65.6611 106.257 69.3331 98.6639 75.6331 93.6749L85.6981 85.7039C88.5781 83.4239 90.8371 80.4509 92.2621 77.0669L98.6461 61.9109L114 67.4819Z" fill="#CC6C25"/>
<path d="M84.2669 98.4329C74.5229 102.405 68.7269 111.255 71.3189 118.2C73.9139 125.145 83.9129 127.554 93.6569 123.582C103.401 119.61 109.197 112.533 106.605 105.588C104.013 98.6459 94.0109 94.4609 84.2669 98.4329Z" fill="#894415"/>
<path d="M105.909 54.177L107.496 64.821C108.174 69.396 107.451 73.938 105.405 77.907L105.06 78.576C103.383 81.828 98.8919 83.238 95.3489 81.204C91.8029 79.17 89.7899 75.888 88.6499 72.912C87.2489 69.267 87.6149 65.373 89.3009 62.103L92.7449 54L105.909 54.177Z" fill="#894415"/>
<path d="M79.1699 101.109C69.3989 105.006 63.5369 113.811 66.0809 120.774C68.6249 127.737 78.6089 130.227 88.3799 126.33C98.1509 122.433 104.013 115.401 101.469 108.438C98.9249 101.475 88.9409 97.212 79.1699 101.109Z" fill="#CC6C25"/>
<path d="M87 75C82.029 75 78 79.029 78 84C78 88.971 82.029 93 87 93C91.971 93 96 88.971 96 84C96 79.029 91.971 75 87 75Z" fill="#263238"/>
<path d="M84 84C84 82.341 85.341 81 87 81C88.656 81 90 82.341 90 84C90 85.659 88.656 87 87 87C85.341 87 84 85.659 84 84Z" fill="#CFD8DC"/>
<path d="M80.4929 123.096C80.5109 120.612 78.5129 118.581 76.0289 118.563C66.0839 118.488 63.5609 116.865 61.3649 113.004C61.3139 112.914 61.2449 112.842 61.1909 112.758C61.1069 112.629 61.0199 112.5 60.9239 112.383C60.8309 112.269 60.7319 112.167 60.6269 112.065C60.5219 111.96 60.4169 111.855 60.2999 111.759C60.1859 111.666 60.0689 111.585 59.9489 111.507C59.8289 111.426 59.7089 111.348 59.5829 111.279C59.4539 111.21 59.3219 111.153 59.1869 111.096C59.0579 111.042 58.9289 110.988 58.7909 110.946C58.6499 110.901 58.5059 110.871 58.3589 110.841C58.2239 110.814 58.0889 110.787 57.9509 110.769C57.8009 110.751 57.6479 110.748 57.4979 110.745C57.3599 110.742 57.2249 110.742 57.0899 110.754C56.9339 110.766 56.7809 110.793 56.6249 110.823C56.4899 110.847 56.3579 110.874 56.2259 110.91C56.0729 110.955 55.9259 111.012 55.7759 111.072C55.6859 111.108 55.5929 111.126 55.5059 111.171C55.4579 111.195 55.4189 111.228 55.3709 111.255C55.3259 111.279 55.2749 111.291 55.2299 111.318C55.1429 111.366 55.0739 111.432 54.9929 111.486C54.8609 111.573 54.7289 111.66 54.6059 111.759C54.4949 111.852 54.3929 111.951 54.2909 112.053C54.1859 112.158 54.0809 112.263 53.9849 112.38C53.8919 112.494 53.8109 112.614 53.7269 112.737C53.6489 112.854 53.5709 112.971 53.5019 113.097C53.4299 113.229 53.3729 113.364 53.3159 113.499C53.2619 113.628 53.2079 113.754 53.1689 113.889C53.1239 114.03 53.0939 114.174 53.0639 114.318C53.0339 114.456 53.0069 114.591 52.9919 114.729C52.9739 114.876 52.9709 115.026 52.9709 115.176C52.9679 115.317 52.9679 115.455 52.9799 115.593C52.9919 115.746 53.0189 115.899 53.0489 116.052C53.0729 116.187 53.0999 116.322 53.1389 116.457C53.1839 116.613 53.2439 116.76 53.3039 116.913C53.3399 117 53.3579 117.093 53.3999 117.18C53.4449 117.273 53.4929 117.354 53.5409 117.447L53.5439 117.456L53.5469 117.462C58.2239 126.927 65.5979 128.91 75.9539 129.003C75.9689 129.003 75.9839 129.003 75.9959 129.003C78.4619 129.003 80.4719 127.014 80.4959 124.542C80.4989 124.275 80.4659 124.02 80.4239 123.765C80.4569 123.543 80.4929 123.324 80.4929 123.096Z" fill="#CC6C25"/>
<path d="M70.7491 89.727C62.4181 85.899 49.8571 72.381 48.0151 54.306L53.9851 53.697C55.7221 70.752 67.9411 81.837 73.2511 84.276L70.7491 89.727Z" fill="#37474F"/>
<path d="M75.0059 96H56.5559C54.7679 96 53.0189 95.469 51.5399 94.473L24.9809 76.623C20.8559 73.851 20.3489 68.715 23.1209 64.596C25.8929 60.468 30.8969 58.926 35.0129 61.689L59.2949 78.009H75.0059C79.9739 78.009 83.9999 82.035 83.9999 87.003C83.9999 91.971 79.9739 96 75.0059 96Z" fill="#00ACC1"/>
<path d="M36.516 39.0001C36.189 37.6021 36 36.1351 36 34.6171V29.0791C36 27.4231 34.659 26.0791 33 26.0791C31.341 26.0791 30 27.4231 30 29.0791V34.6171C30 36.1171 30.135 37.5841 30.387 39.0001H36.516Z" fill="#90A4AE"/>
<path d="M71.6129 39.0001C71.8649 37.5811 71.9999 36.1171 71.9999 34.6171V29.0791C71.9999 27.4231 70.6589 26.0791 68.9999 26.0791C67.3409 26.0791 65.9999 27.4231 65.9999 29.0791V34.6171C65.9999 36.1381 65.8109 37.6021 65.4839 39.0001H71.6129Z" fill="#90A4AE"/>
<path d="M52.2 56.9999H49.8C38.883 56.9999 30 46.9589 30 34.6169H36C36 43.6499 42.189 50.9999 49.8 50.9999H52.2C59.808 50.9999 66 43.6499 66 34.6169H72C72 46.9589 63.117 56.9999 52.2 56.9999Z" fill="#37474F"/>
</svg>
